<svg aria-hidden="true" style="position: absolute; width: 0; height: 0; overflow: hidden;" version="1.1" xmlns="http://www.w3.org/2000/svg" xmlns:xlink="http://www.w3.org/1999/xlink">
<defs>
<symbol id="icon-logo" viewBox="0 0 32 32">
<path fill="#24cca7" style="fill: var(--color1, #24cca7)" d="M3.755 7.619l16.211-4.537-0.858-1.779c-0.562-1.157-1.932-1.634-3.060-1.058l-14.513 7.375h2.219z"></path>
<path fill="#24cca7" style="fill: var(--color1, #24cca7)" d="M24.813 3.048c-0.195 0-0.391 0.029-0.586 0.087l-15.012 4.484h18.431l-0.693-2.779c-0.266-1.083-1.163-1.793-2.14-1.793z"></path>
<path fill="#4a56e2" style="fill: var(--color2, #4a56e2)" d="M28.36 8.573h-26.559c-0.568 0-1.074 0.26-1.405 0.67-0.151 0.189-0.266 0.406-0.331 0.645-0.040 0.15-0.065 0.307-0.065 0.467v19.862c0 0.984 0.805 1.783 1.797 1.783h26.559c0.992 0 1.797-0.799 1.797-1.783v-4.973h-10.662c-1.685 0-3.055-1.358-3.055-3.030v-3.964c0-0.82 0.331-1.565 0.866-2.111 0.474-0.485 1.11-0.813 1.822-0.895 0.119-0.014 0.241-0.021 0.363-0.021h10.665v-4.867c0.004-0.984-0.801-1.783-1.793-1.783z"></path>
<path fill="#4a56e2" style="fill: var(--color2, #4a56e2)" d="M31.414 16.926c-0.18-0.164-0.392-0.289-0.629-0.371-0.183-0.061-0.377-0.096-0.582-0.096h-10.712c-0.992 0-1.797 0.799-1.797 1.783v3.968c0 0.984 0.805 1.783 1.797 1.783h10.712c0.205 0 0.399-0.036 0.582-0.096 0.237-0.078 0.449-0.207 0.629-0.371 0.359-0.324 0.586-0.795 0.586-1.316v-3.968c0-0.521-0.226-0.991-0.586-1.316zM23.243 20.58c0 0.492-0.402 0.891-0.898 0.891h-0.596c-0.496 0-0.898-0.399-0.898-0.891v-0.592c0-0.285 0.133-0.538 0.345-0.699 0.154-0.118 0.345-0.193 0.553-0.193h0.596c0.496 0 0.898 0.399 0.898 0.891v0.592z"></path>
</symbol>
<symbol id="icon-lock" viewBox="0 0 32 32">
<path d="M23.68 10.88h-1.28v-2.56c0-3.533-2.867-6.4-6.4-6.4s-6.4 2.867-6.4 6.4v2.56h-1.28c-1.408 0-2.56 1.152-2.56 2.56v12.8c0 1.408 1.152 2.56 2.56 2.56h15.36c1.408 0 2.56-1.152 2.56-2.56v-12.8c0-1.408-1.152-2.56-2.56-2.56zM16 22.4c-1.408 0-2.56-1.152-2.56-2.56s1.152-2.56 2.56-2.56c1.408 0 2.56 1.152 2.56 2.56s-1.152 2.56-2.56 2.56zM19.968 10.88h-7.936v-2.56c0-2.189 1.779-3.968 3.968-3.968s3.968 1.779 3.968 3.968v2.56z"></path>
</symbol>
<symbol id="icon-email" viewBox="0 0 32 32">
<path d="M26.24 5.76h-20.48c-1.408 0-2.547 1.152-2.547 2.56l-0.013 15.36c0 1.408 1.152 2.56 2.56 2.56h20.48c1.408 0 2.56-1.152 2.56-2.56v-15.36c0-1.408-1.152-2.56-2.56-2.56zM26.24 10.88l-10.24 6.4-10.24-6.4v-2.56l10.24 6.4 10.24-6.4v2.56z"></path>
</symbol>
<symbol id="icon-account_box" viewBox="0 0 32 32">
<path d="M4.48 7.040v17.92c0 1.408 1.139 2.56 2.56 2.56h17.92c1.408 0 2.56-1.152 2.56-2.56v-17.92c0-1.408-1.152-2.56-2.56-2.56h-17.92c-1.421 0-2.56 1.152-2.56 2.56zM19.84 12.16c0 2.125-1.715 3.84-3.84 3.84s-3.84-1.715-3.84-3.84c0-2.125 1.715-3.84 3.84-3.84s3.84 1.715 3.84 3.84zM8.32 22.4c0-2.56 5.12-3.968 7.68-3.968s7.68 1.408 7.68 3.968v1.28h-15.36v-1.28z"></path>
</symbol>
<symbol id="icon-exit" viewBox="0 0 32 32">
<path fill="#bdbdbd" style="fill: var(--color4, #bdbdbd)" d="M20.051 23.237h2.499v4.997c0 2.067-1.681 3.748-3.748 3.748h-15.054c-2.066 0-3.748-1.681-3.748-3.748v-24.486c0-2.066 1.681-3.748 3.748-3.748h15.054c2.067 0 3.748 1.681 3.748 3.748v4.997h-2.499v-4.997c0-0.689-0.56-1.249-1.249-1.249h-15.054c-0.689 0-1.249 0.561-1.249 1.249v24.486c0 0.689 0.561 1.249 1.249 1.249h15.054c0.689 0 1.249-0.561 1.249-1.249v-4.997zM26.111 10.102l-1.767 1.767 2.873 2.874h-16.161v2.499h16.161l-2.873 2.873 1.767 1.767 5.889-5.889-5.889-5.89z"></path>
</symbol>
<symbol id="icon-home" viewBox="0 0 32 32">
<path fill="#6e78e8" style="fill: var(--color5, #6e78e8)" d="M6.545 2.182c-2.41 0-4.364 1.954-4.364 4.364v18.909c0 2.41 1.954 4.364 4.364 4.364h18.909c2.41 0 4.364-1.954 4.364-4.364v-18.909c0-2.41-1.954-4.364-4.364-4.364h-18.909zM13.77 17.716v5.961h-4.97v-7.948h-2.982l9.939-8.941 9.939 8.941h-2.982v7.948h-4.97v-5.961h-3.976z"></path>
</symbol>
<symbol id="icon-currency" viewBox="0 0 32 32">
<path fill="#6e78e8" style="fill: var(--color5, #6e78e8)" d="M6.545 2.182c-2.41 0-4.364 1.954-4.364 4.364v18.909c0 2.41 1.954 4.364 4.364 4.364h18.909c2.41 0 4.364-1.954 4.364-4.364v-18.909c0-2.41-1.954-4.364-4.364-4.364h-18.909zM13.638 13.526c0 0.86 0.661 1.412 2.715 1.946s4.253 1.412 4.253 3.982c0 1.855-1.403 2.878-3.167 3.212v1.946h-2.715v-1.964c-1.737-0.371-3.222-1.484-3.33-3.466h1.991c0.1 1.068 0.833 1.9 2.697 1.9 2 0 2.443-0.995 2.443-1.62 0-0.842-0.452-1.638-2.715-2.181-2.525-0.606-4.253-1.647-4.253-3.737 0-1.747 1.412-2.887 3.167-3.267v-1.955h2.715v1.982c1.891 0.462 2.841 1.891 2.905 3.448h-2c-0.054-1.131-0.651-1.9-2.262-1.9-1.529 0-2.443 0.688-2.443 1.674z"></path>
</symbol>
<symbol id="icon-timeline" viewBox="0 0 32 32">
<path fill="#6e78e8" style="fill: var(--color5, #6e78e8)" d="M6.545 2.182h18.909c2.41 0 4.364 1.954 4.364 4.364v18.909c0 2.41-1.954 4.364-4.364 4.364h-18.909c-2.41 0-4.364-1.954-4.364-4.364v-18.909c0-2.41 1.954-4.364 4.364-4.364zM23.636 14.222c0.933 0 1.697-0.8 1.697-1.778s-0.764-1.778-1.697-1.778c-0.933 0-1.697 0.8-1.697 1.778 0 0.16 0.017 0.311 0.059 0.453l-3.012 3.164c-0.136-0.044-0.288-0.062-0.441-0.062s-0.305 0.018-0.441 0.062l-2.164-2.267c0.042-0.142 0.059-0.302 0.059-0.462 0-0.978-0.764-1.778-1.697-1.778s-1.697 0.8-1.697 1.778c0 0.16 0.017 0.32 0.059 0.462l-3.869 4.044c-0.136-0.044-0.28-0.062-0.433-0.062-0.933 0-1.697 0.8-1.697 1.778s0.764 1.778 1.697 1.778c0.933 0 1.697-0.8 1.697-1.778 0-0.16-0.017-0.311-0.059-0.453l3.861-4.053c0.136 0.044 0.288 0.062 0.441 0.062s0.305-0.018 0.441-0.062l2.164 2.267c-0.042 0.142-0.059 0.302-0.059 0.462 0 0.978 0.764 1.778 1.697 1.778s1.697-0.8 1.697-1.778c0-0.16-0.017-0.32-0.059-0.462l3.021-3.156c0.136 0.044 0.28 0.062 0.433 0.062z"></path>
</symbol>
<symbol id="icon-plus" viewBox="0 0 24 24">
<path d="M5 13h6v6c0 0.552 0.448 1 1 1s1-0.448 1-1v-6h6c0.552 0 1-0.448 1-1s-0.448-1-1-1h-6v-6c0-0.552-0.448-1-1-1s-1 0.448-1 1v6h-6c-0.552 0-1 0.448-1 1s0.448 1 1 1z"></path>
</symbol>
<symbol id="icon-Frame-1" viewBox="0 0 10 10">
<path fill="#4a56e2" style="fill: var(--color1, #4a56e2)" d="M9.865 0.181l0.005 1.919c0 0.107-0.086 0.195-0.194 0.195l-3.055 0.007c-0.108 0-0.196-0.086-0.196-0.193l-0.005-1.919c0-0.1 0.081-0.181 0.181-0.181 0 0 0 0 0 0h-0l3.081-0.010c0 0 0 0 0 0 0.1 0 0.181 0.081 0.181 0.181v0z"></path>
<path fill="#a6a6a6" style="fill: var(--color2, #a6a6a6)" d="M9.372 1.831c-0 0.099-0.080 0.179-0.179 0.179-0 0-0 0-0.001 0h0c-0.098 0-0.179-0.079-0.179-0.179 0-0.099 0.080-0.179 0.179-0.179 0 0 0 0 0.001 0h-0c0.1 0 0.179 0.079 0.179 0.179z"></path>
<path fill="#ffc727" style="fill: var(--color3, #ffc727)" d="M9.595 1.831c0 0 0 0 0 0 0 0.099-0.080 0.179-0.179 0.179-0 0-0 0-0.001 0h0c-0.098 0-0.179-0.079-0.179-0.179 0-0.099 0.080-0.179 0.179-0.179 0 0 0 0 0.001 0h-0c0.098 0 0.179 0.079 0.179 0.179zM7.258 0.782h-0.445c-0.055 0-0.1-0.045-0.1-0.1v-0.246c0-0.055 0.045-0.1 0.1-0.1h0.445c0.055 0 0.1 0.045 0.1 0.1v0.246c0 0.055-0.045 0.1-0.1 0.1z"></path>
<path fill="#fff" style="fill: var(--color4, #fff)" d="M9.468 0.574h-0.292c-0.067 0-0.122-0.055-0.122-0.122s0.055-0.122 0.122-0.122h0.292c0.067 0 0.122 0.055 0.122 0.122s-0.055 0.122-0.122 0.122z"></path>
<path fill="#f8f8f8" style="fill: var(--color5, #f8f8f8)" d="M6.691 1.19l-0.026 0.017h-0.002c-0.002 0-0.005-0.002-0.005-0.002-0.002-0.002 0-0.007 0.002-0.010l0.036-0.021c0.002-0.002 0.007 0 0.010 0.002v0.176c0 0.002-0.002 0.007-0.007 0.007-0.002 0-0.007-0.002-0.007-0.007v-0.162zM6.748 1.344l0.089-0.079c0.010-0.010 0.017-0.021 0.017-0.036 0-0.012-0.005-0.024-0.012-0.031-0.010-0.010-0.022-0.017-0.036-0.017-0.012 0-0.024 0.005-0.034 0.012l-0.010 0.007c-0.001 0.001-0.003 0.002-0.005 0.002s-0.004-0.001-0.005-0.002l0 0c-0.001-0.001-0.002-0.003-0.002-0.005s0.001-0.004 0.002-0.005l-0 0 0.010-0.010c0.012-0.010 0.026-0.017 0.041-0.017 0.017 0 0.033 0.007 0.045 0.019s0.017 0.026 0.017 0.041c0 0.017-0.007 0.033-0.019 0.045l-0.074 0.067h0.089c0.002 0 0.007 0.002 0.007 0.007 0 0.002-0.002 0.007-0.007 0.007h-0.105c-0.002 0-0.005 0-0.005-0.002-0.005 0.002-0.005-0.002-0.002-0.005zM7.021 1.18l-0.048 0.050c0.012 0.002 0.024 0.007 0.031 0.017 0.012 0.012 0.019 0.029 0.019 0.045-0.001 0.035-0.029 0.064-0.065 0.064h-0c-0.017 0-0.033-0.007-0.045-0.019-0.001-0.001-0.002-0.003-0.002-0.005s0.001-0.004 0.002-0.005l-0 0c0.002-0.002 0.007-0.002 0.010 0 0.010 0.010 0.022 0.014 0.036 0.014 0.012 0 0.026-0.005 0.036-0.014s0.014-0.024 0.014-0.036c0-0.012-0.005-0.026-0.014-0.036s-0.021-0.014-0.034-0.014c-0 0-0.001 0-0.001 0h0c-0.002 0-0.005 0-0.005-0.002-0.001-0.001-0.002-0.003-0.002-0.005s0.001-0.003 0.002-0.005l-0 0 0.045-0.048h-0.072c-0.005 0-0.007-0.002-0.007-0.007s0.002-0.007 0.007-0.007h0.089c0.005 0 0.007 0.002 0.007 0.007 0 0-0.002 0.002-0.002 0.005zM7.179 1.316h-0.1c-0.002 0-0.002 0-0.005-0.002-0.001-0.001-0.002-0.003-0.002-0.005s0.001-0.003 0.002-0.005l-0 0 0.108-0.136c0.002-0.002 0.007-0.002 0.010 0l0.002 0.002v0.129h0.012c0.005 0 0.007 0.002 0.007 0.007 0 0.002-0.002 0.007-0.007 0.007h-0.012v0.031c0 0.002-0.002 0.007-0.007 0.007-0.002 0-0.007-0.002-0.007-0.007v-0.029zM7.179 1.304v-0.11l-0.089 0.11h0.089zM7.413 1.335c-0.001-0.001-0.002-0.003-0.002-0.005s0.001-0.003 0.002-0.005l-0 0c0.002-0.002 0.007-0.002 0.010 0 0.010 0.010 0.022 0.014 0.036 0.014 0.012 0 0.026-0.005 0.036-0.014s0.014-0.021 0.014-0.034c0-0-0-0.001-0-0.001v0c0-0.012-0.005-0.026-0.014-0.036s-0.021-0.014-0.035-0.014c-0 0-0.001 0-0.001 0h0c-0.012 0-0.026 0.005-0.036 0.014-0.002 0.002-0.007 0.002-0.010 0l-0.002-0.002v-0.005l0.010-0.076c0-0.002 0-0.005 0.002-0.005 0 0 0.002-0.002 0.005-0.002h0.089c0.005 0 0.007 0.002 0.007 0.007s-0.002 0.007-0.007 0.007h-0.081l-0.007 0.055c0.010-0.005 0.022-0.010 0.031-0.010 0.017 0 0.033 0.005 0.045 0.019 0.012 0.012 0.019 0.029 0.019 0.045s-0.005 0.033-0.019 0.045c-0.012 0.012-0.028 0.019-0.045 0.019h-0c-0.017 0.002-0.034-0.002-0.045-0.017zM7.59 1.209c0.012-0.024 0.033-0.041 0.065-0.041 0.002 0 0.007 0.002 0.007 0.007s-0.002 0.007-0.007 0.007c-0.026 0-0.043 0.014-0.055 0.033-0.007 0.012-0.010 0.024-0.014 0.038 0.012-0.012 0.029-0.021 0.045-0.021 0.034 0 0.062 0.029 0.062 0.062 0 0 0 0 0 0 0 0.034-0.028 0.062-0.062 0.062-0 0-0 0-0.001 0h0c-0.033 0-0.060-0.026-0.062-0.060v-0.012c0.005-0.029 0.010-0.055 0.022-0.076zM7.588 1.294v0.005c0.002 0.024 0.024 0.043 0.048 0.043 0.026 0 0.050-0.021 0.050-0.048s-0.022-0.048-0.050-0.048c-0.026-0.002-0.048 0.019-0.048 0.048zM7.767 1.344l0.069-0.164h-0.091c-0.002 0-0.007-0.002-0.007-0.007 0-0.002 0.002-0.007 0.007-0.007h0.103c0.002 0 0.002 0.002 0.002 0.005v0.005l-0.072 0.172c0 0.002-0.002 0.005-0.005 0.005h-0.002c-0.005 0-0.007-0.005-0.005-0.007zM7.951 1.166c0.022 0 0.038 0.017 0.038 0.038 0 0.012-0.007 0.024-0.017 0.031 0.022 0.010 0.038 0.031 0.038 0.055 0 0.033-0.026 0.060-0.060 0.060-0 0-0 0-0.001 0-0.033 0-0.059-0.026-0.059-0.059 0-0 0-0 0-0.001v0c0-0.026 0.014-0.048 0.038-0.057-0.010-0.007-0.017-0.019-0.017-0.031 0-0.017 0.017-0.036 0.038-0.036zM7.951 1.34c0.026 0 0.048-0.021 0.048-0.048s-0.022-0.048-0.048-0.048-0.048 0.021-0.048 0.048c0 0.026 0.022 0.048 0.048 0.048zM7.951 1.232c0.014-0 0.026-0.012 0.026-0.026v-0c-0-0.014-0.012-0.026-0.026-0.026h-0c-0.014 0-0.026 0.012-0.026 0.026v0c0 0.014 0.012 0.024 0.026 0.026zM8.284 1.166c0.031 0 0.057 0.024 0.062 0.055v0.019c0 0.024-0.005 0.052-0.017 0.074s-0.036 0.041-0.065 0.041c-0.005 0-0.007-0.002-0.007-0.007s0.002-0.007 0.007-0.007c0.026 0 0.043-0.014 0.055-0.033 0.007-0.012 0.012-0.024 0.014-0.038-0.012 0.012-0.029 0.021-0.045 0.021-0 0-0 0-0.001 0-0.034 0-0.062-0.028-0.062-0.062 0-0 0-0 0-0v0c-0.005-0.036 0.024-0.062 0.057-0.062zM8.334 1.228c0-0.026-0.022-0.048-0.050-0.048-0.026 0-0.048 0.021-0.048 0.048s0.022 0.048 0.048 0.048c0.029 0 0.050-0.021 0.050-0.048zM8.394 1.259c0-0 0-0.001 0-0.001 0-0.023 0.006-0.045 0.017-0.064l-0 0.001c0.012-0.017 0.029-0.029 0.048-0.029s0.036 0.012 0.048 0.029 0.019 0.041 0.019 0.064c0 0.026-0.007 0.048-0.019 0.064s-0.029 0.029-0.048 0.029c-0.019 0-0.036-0.012-0.048-0.029-0.010-0.019-0.017-0.041-0.017-0.064v-0zM8.408 1.259c0 0.024 0.007 0.043 0.017 0.057s0.022 0.021 0.036 0.021 0.026-0.007 0.036-0.021c0.010-0.014 0.017-0.036 0.017-0.057 0-0.024-0.007-0.043-0.017-0.057s-0.022-0.021-0.036-0.021-0.026 0.007-0.036 0.021c-0.012 0.014-0.017 0.033-0.017 0.057zM8.612 1.182l-0.026 0.017h-0.002c-0.002 0-0.005-0.002-0.005-0.002-0.002-0.002 0-0.007 0.002-0.010l0.036-0.021c0.002-0.002 0.007 0 0.010 0.002v0.176c0 0.002-0.002 0.007-0.007 0.007-0.002 0-0.007-0.002-0.007-0.007v-0.162zM8.669 1.34l0.089-0.079c0.010-0.010 0.017-0.021 0.017-0.036 0-0.012-0.005-0.024-0.012-0.031-0.010-0.010-0.022-0.017-0.036-0.017-0.012 0-0.024 0.005-0.033 0.012l-0.010 0.007c-0.002 0.002-0.007 0.002-0.010 0-0.001-0.001-0.002-0.003-0.002-0.005s0.001-0.004 0.002-0.005l-0 0 0.010-0.010c0.012-0.010 0.026-0.017 0.041-0.017 0.017 0 0.034 0.007 0.045 0.019s0.017 0.026 0.017 0.041c0 0.017-0.007 0.033-0.019 0.045l-0.074 0.067h0.089c0.002 0 0.007 0.002 0.007 0.007 0 0.002-0.002 0.007-0.007 0.007h-0.105c-0.002 0-0.005 0-0.005-0.002-0.005 0.002-0.005-0.002-0.002-0.005zM9.102 1.175l-0.048 0.050c0.012 0.002 0.024 0.007 0.031 0.017 0.012 0.012 0.019 0.029 0.019 0.045-0.001 0.035-0.029 0.064-0.065 0.064h-0c-0.017 0-0.033-0.007-0.045-0.019-0.001-0.001-0.002-0.003-0.002-0.005s0.001-0.004 0.002-0.005l-0 0c0.002-0.002 0.007-0.002 0.010 0 0.010 0.010 0.022 0.014 0.036 0.014 0.012 0 0.026-0.005 0.036-0.014s0.014-0.024 0.014-0.036c0-0.012-0.005-0.026-0.014-0.036s-0.021-0.014-0.034-0.014c-0 0-0.001 0-0.001 0h0c-0.002 0-0.005 0-0.005-0.002-0.001-0.001-0.002-0.003-0.002-0.005s0.001-0.003 0.002-0.005l-0 0 0.045-0.048h-0.072c-0.005 0-0.007-0.002-0.007-0.007s0.002-0.007 0.007-0.007h0.088c0.005 0 0.007 0.002 0.007 0.007 0 0 0 0.002-0.002 0.005 0-0.002 0 0 0 0zM9.26 1.311h-0.1c-0.002 0-0.002 0-0.005-0.002-0.001-0.001-0.002-0.003-0.002-0.005s0.001-0.003 0.002-0.005l-0 0 0.108-0.136c0.002-0.002 0.007-0.002 0.010 0l0.002 0.002v0.129h0.012c0.005 0 0.007 0.002 0.007 0.007 0 0.002-0.002 0.007-0.007 0.007h-0.012v0.031c0 0.002-0.002 0.007-0.007 0.007-0.002 0-0.007-0.002-0.007-0.007v-0.029zM9.26 1.299v-0.11l-0.089 0.11h0.089zM9.334 1.33c-0.001-0.001-0.002-0.003-0.002-0.005s0.001-0.003 0.002-0.005l-0 0c0.002-0.002 0.007-0.002 0.010 0 0.010 0.010 0.022 0.014 0.036 0.014 0.012 0 0.026-0.005 0.036-0.014s0.014-0.021 0.014-0.036c0-0.012-0.005-0.026-0.014-0.036s-0.021-0.014-0.035-0.014c-0 0-0.001 0-0.001 0h0c-0.012 0-0.026 0.005-0.036 0.014-0.001 0.001-0.003 0.002-0.005 0.002s-0.004-0.001-0.005-0.002l-0.002-0.002v-0.005l0.010-0.076c0-0.002 0-0.005 0.002-0.005 0 0 0.002-0.002 0.005-0.002h0.088c0.005 0 0.007 0.002 0.007 0.007s-0.002 0.007-0.007 0.007h-0.081l-0.007 0.055c0.010-0.005 0.022-0.010 0.031-0.010 0.017 0 0.033 0.005 0.045 0.019 0.012 0.012 0.019 0.029 0.019 0.045s-0.005 0.033-0.019 0.045c-0.012 0.012-0.028 0.019-0.045 0.019h-0c-0.017 0.002-0.033-0.002-0.045-0.017zM9.511 1.204c0.012-0.024 0.034-0.041 0.065-0.041 0.002 0 0.007 0.002 0.007 0.007s-0.002 0.007-0.007 0.007c-0.026 0-0.043 0.014-0.055 0.033-0.007 0.012-0.010 0.024-0.014 0.038 0.012-0.012 0.029-0.021 0.045-0.021 0.033 0 0.062 0.029 0.062 0.062s-0.026 0.062-0.062 0.062c-0.033 0-0.060-0.026-0.062-0.060v-0.012c0.005-0.029 0.010-0.055 0.022-0.076zM9.509 1.29v0.005c0.002 0.024 0.024 0.043 0.048 0.043 0.026 0 0.050-0.021 0.050-0.048s-0.022-0.048-0.050-0.048c-0.026-0.002-0.048 0.019-0.048 0.048z"></path>
<path fill="#a6a6a6" style="fill: var(--color2, #a6a6a6)" d="M8.351 1.674l-1.636 0.004 0 0.081 1.636-0.004-0-0.081zM7.872 1.851l-1.158 0.003 0 0.081 1.158-0.003-0-0.081zM8.939 0.33l-0.816 0.002 0 0.081 0.816-0.002-0-0.081z"></path>
<path fill="#24cca7" style="fill: var(--color6, #24cca7)" d="M9.61 4.079h-0.168c-0.442 0-0.8 0.358-0.8 0.8v0.162c0 0.442 0.358 0.8 0.8 0.8h0.168c0.442 0 0.8-0.358 0.8-0.8v-0.162c0-0.442-0.358-0.8-0.8-0.8z"></path>
<path fill="#fff" style="fill: var(--color4, #fff)" d="M9.556 4.362c0.033 0 0.060 0.026 0.060 0.060v0.031c0.081 0.010 0.153 0.036 0.218 0.076 0.022 0.012 0.043 0.033 0.043 0.067 0 0.043-0.036 0.076-0.079 0.076-0.014 0-0.029-0.005-0.043-0.012-0.048-0.029-0.096-0.050-0.144-0.062v0.267c0.213 0.052 0.304 0.138 0.304 0.286 0 0.153-0.12 0.255-0.297 0.272v0.083c0 0.033-0.026 0.060-0.060 0.060s-0.062-0.026-0.062-0.060v-0.086c-0.105-0.012-0.201-0.048-0.287-0.11-0.023-0.013-0.038-0.038-0.038-0.066 0-0 0-0.001 0-0.001v0c0-0.043 0.034-0.076 0.077-0.076 0.017 0 0.033 0.005 0.045 0.014 0.065 0.048 0.129 0.079 0.206 0.093v-0.274c-0.203-0.052-0.299-0.129-0.299-0.286 0-0.15 0.12-0.253 0.294-0.267v-0.029c0-0.031 0.029-0.057 0.062-0.057zM9.499 4.837v-0.246c-0.088 0.010-0.134 0.055-0.134 0.117 0 0.057 0.029 0.093 0.134 0.129zM9.611 5.030v0.253c0.089-0.010 0.139-0.055 0.139-0.122-0.002-0.060-0.031-0.098-0.139-0.131z"></path>
<path fill="#24cca7" style="fill: var(--color6, #24cca7)" d="M1.432 2.586h-0.168c-0.442 0-0.8 0.358-0.8 0.8v0.162c0 0.442 0.358 0.8 0.8 0.8h0.168c0.442 0 0.8-0.358 0.8-0.8v-0.162c0-0.442-0.358-0.8-0.8-0.8z"></path>
<path fill="#fff" style="fill: var(--color4, #fff)" d="M1.739 3.816h-0.825l-0.203-0.729h1.16l0.043-0.169h0.132v0.048h-0.093l-0.213 0.851zM0.952 3.769h0.751l0.158-0.634h-1.084l0.175 0.634z"></path>
<path fill="#fff" style="fill: var(--color4, #fff)" d="M1.031 3.962l-0.045-0.019 0.074-0.174h0.562l0.060 0.176-0.045 0.014-0.050-0.143h-0.493l-0.062 0.145zM1.849 3.254h-1.053v0.048h1.053v-0.048zM1.792 3.431l-0.952 0.004 0 0.048 0.952-0.004-0-0.048zM1.753 3.616h-0.864v0.048h0.864v-0.048z"></path>
<path fill="#fff" style="fill: var(--color4, #fff)" d="M1.356 3.116h-0.048v0.679h0.048v-0.679zM1.171 3.112l-0.048 0.004 0.055 0.68 0.048-0.004-0.055-0.68zM0.966 3.11l-0.047 0.009 0.126 0.68 0.047-0.009-0.125-0.68zM1.492 3.113l-0.055 0.68 0.048 0.004 0.055-0.68-0.048-0.004zM1.698 3.109l-0.125 0.68 0.047 0.009 0.125-0.68-0.047-0.009zM1.009 4.055c-0 0-0.001 0-0.001 0-0.056 0-0.102-0.046-0.102-0.102 0-0 0-0 0-0.001v0c0-0 0-0 0-0.001 0-0.056 0.046-0.102 0.102-0.102 0 0 0.001 0 0.001 0h-0c0 0 0.001 0 0.001 0 0.056 0 0.102 0.046 0.102 0.102 0 0 0 0 0 0.001v-0c0 0.057-0.048 0.103-0.103 0.103zM1.009 3.897c-0.031 0-0.055 0.024-0.055 0.055s0.024 0.055 0.055 0.055c0.031 0 0.055-0.024 0.055-0.055s-0.026-0.055-0.055-0.055zM1.658 4.055c-0 0-0.001 0-0.001 0-0.056 0-0.102-0.046-0.102-0.102 0-0 0-0 0-0.001v0c0-0 0-0 0-0.001 0-0.056 0.046-0.102 0.102-0.102 0 0 0.001 0 0.001 0h-0c0 0 0.001 0 0.001 0 0.056 0 0.102 0.046 0.102 0.102 0 0 0 0 0 0.001v-0c0 0 0 0 0 0.001 0 0.056-0.046 0.102-0.102 0.102-0 0-0.001 0-0.001 0h0zM1.658 3.897c-0.031 0-0.055 0.024-0.055 0.055s0.024 0.055 0.055 0.055c0.031 0 0.055-0.024 0.055-0.055s-0.026-0.055-0.055-0.055z"></path>
<path fill="#4a56e2" style="fill: var(--color1, #4a56e2)" d="M5.801 10c2.423 0 4.387-0.259 4.387-0.579s-1.964-0.579-4.387-0.579c-2.423 0-4.387 0.259-4.387 0.579s1.964 0.579 4.387 0.579z"></path>
<path fill="#4a56e2" style="fill: var(--color1, #4a56e2)" d="M1.301 9.361c0.703 0 1.273-0.109 1.273-0.243s-0.57-0.243-1.273-0.243-1.273 0.109-1.273 0.243c0 0.134 0.57 0.243 1.273 0.243z"></path>
<path fill="#263238" style="fill: var(--color7, #263238)" d="M6.219 0.508h-3.837c-0.215 0-0.388 0.176-0.388 0.393v7.871c0 0.217 0.175 0.393 0.388 0.393h3.837c0.215 0 0.388-0.176 0.388-0.393v-7.871c0-0.217-0.172-0.393-0.388-0.393zM6.365 8.529c0 0.207-0.155 0.374-0.347 0.374h-3.433c-0.191 0-0.349-0.167-0.349-0.374v-7.328c0-0.422 0.155-0.443 0.349-0.443h0.687c0.041 0 0.072 0.045 0.072 0.103v0.024c0 0.131 0.072 0.131 0.16 0.131h1.591c0.088 0 0.16 0 0.16-0.131v-0.024c0-0.057 0.031-0.103 0.072-0.103h0.687c0.191 0 0.347 0.055 0.347 0.443v7.328h0.005z"></path>
<path fill="#fff" style="fill: var(--color4, #fff)" d="M6.365 1.273v7.256c0 0.207-0.155 0.374-0.347 0.374h-3.433c-0.191 0-0.349-0.167-0.349-0.374v-7.256c0-0.422 0.156-0.515 0.349-0.515h0.687c0.041 0 0.072 0.045 0.072 0.103v0.024c0 0.131 0.072 0.131 0.16 0.131h1.591c0.088 0 0.16 0 0.16-0.131v-0.024c0-0.057 0.031-0.103 0.072-0.103h0.687c0.196 0 0.352 0.129 0.352 0.515z"></path>
<path fill="#fff" style="fill: var(--color4, #fff)" d="M4.519 0.851h-0.433c-0.014-0-0.026-0.012-0.026-0.026v-0c0-0.014 0.012-0.026 0.026-0.026h0.433c0.014 0 0.026 0.012 0.026 0.026s-0.012 0.026-0.026 0.026h-0z"></path>
<path fill="#c7c7c7" style="fill: var(--color8, #c7c7c7)" d="M4.521 4.83h-0.5v0.064h0.5v-0.064z"></path>
<path fill="#ffd8d0" style="fill: var(--color9, #ffd8d0)" d="M3.23 1.764h-0.413c-0.177 0-0.32 0.143-0.32 0.32v0 0.409c0 0.177 0.143 0.32 0.32 0.32v0h0.413c0.177 0 0.32-0.143 0.32-0.32v0-0.409c0-0.177-0.143-0.32-0.32-0.32v0z"></path>
<path fill="#263238" style="fill: var(--color7, #263238)" d="M3.136 2.424l-0.139-0.045s-0.072 0.055-0.12-0.038c0 0-0.108 0.031-0.144-0.081 0 0-0.132-0.041-0.093-0.117 0.038-0.074 0.144 0.005 0.144 0.005s0.105-0.010 0.141 0.098c0 0 0.1 0 0.1 0.093l0.11 0.086z"></path>
<path fill="#fff" style="fill: var(--color4, #fff)" d="M2.703 2.172c0.038 0.019 0.074 0.038 0.11 0.060 0.050 0.026 0.086 0.047 0.122 0.068l-0.011-0.006 0.108 0.064c0.036 0.021 0.072 0.043 0.105 0.069l-0.026-0.019-0.026-0.017-0.055-0.031-0.215-0.124c-0.038-0.021-0.074-0.043-0.11-0.064z"></path>
<path fill="#263238" style="fill: var(--color7, #263238)" d="M3.143 2.42l0.002-0.145s0.074-0.050 0.002-0.124c0 0 0.065-0.091-0.031-0.16 0 0 0.005-0.138-0.079-0.126s-0.043 0.136-0.043 0.136-0.043 0.095 0.048 0.167c0 0-0.033 0.095 0.055 0.124l0.045 0.129z"></path>
<path fill="#fff" style="fill: var(--color4, #fff)" d="M3.045 1.928c0.010 0.041 0.017 0.081 0.024 0.122l0.024 0.124 0.024 0.124 0.012 0.062 0.007 0.031 0.007 0.031c-0.012-0.041-0.022-0.081-0.031-0.122s-0.017-0.081-0.026-0.122c-0.007-0.041-0.017-0.081-0.024-0.124-0.005-0.043-0.010-0.086-0.017-0.126z"></path>
<path fill="#455a64" style="fill: var(--color10, #455a64)" d="M3.153 2.441l-0.136-0.141s-0.115 0.029-0.124-0.107c0 0-0.148-0.019-0.129-0.174 0 0-0.139-0.119-0.053-0.191 0.086-0.069 0.172 0.081 0.172 0.081s0.132 0.045 0.12 0.193c0 0 0.122 0.052 0.074 0.164l0.077 0.174z"></path>
<path fill="#fff" style="fill: var(--color4, #fff)" d="M2.799 1.905c0.032 0.038 0.064 0.080 0.094 0.123l0.004 0.006c0.007 0.012 0.017 0.021 0.024 0.033l0.024 0.033c0.007 0.012 0.014 0.021 0.022 0.033s0.014 0.021 0.022 0.033 0.029 0.045 0.043 0.067l0.022 0.033 0.010 0.017 0.010 0.017c0.029 0.045 0.053 0.093 0.079 0.141l-0.010-0.017-0.010-0.017-0.010-0.017-0.010-0.017-0.043-0.067-0.086-0.136c-0.014-0.021-0.029-0.045-0.045-0.067l-0.022-0.033-0.024-0.033c-0.014-0.021-0.031-0.043-0.045-0.067-0.017-0.024-0.033-0.045-0.048-0.067z"></path>
<path fill="#fff" style="fill: var(--color4, #fff)" d="M3.37 2.439c0.002 0.002 0.005 0.007 0.007 0.010 0.067 0.105-0.022 0.186-0.024 0.224s0.026 0.062 0.010 0.076c-0.017 0.012-0.031-0.024-0.069-0.033-0.029-0.007-0.105 0.026-0.172-0.010-0.005-0.002-0.012-0.007-0.017-0.010-0.012-0.007-0.021-0.017-0.031-0.031-0.002-0.002-0.005-0.007-0.007-0.010l-0.005-0.005c-0.029-0.043-0.041-0.083-0.038-0.119 0-0.007 0.002-0.017 0.002-0.024 0.010-0.048 0.038-0.086 0.079-0.114 0.065-0.045 0.151-0.057 0.22 0.002 0.005 0.005 0.010 0.007 0.014 0.012 0.010 0.010 0.017 0.019 0.026 0.029 0.002 0 0.005 0 0.005 0.002z"></path>
<path fill="#dbdbdb" style="fill: var(--color11, #dbdbdb)" d="M3.201 2.627l0.010 0.014-0.089 0.064c-0.005-0.002-0.012-0.007-0.017-0.010l0.096-0.069zM3.126 2.605l0.010 0.014-0.062 0.043c-0.002-0.002-0.005-0.007-0.007-0.010l-0.005-0.005 0.065-0.043zM3.37 2.439c0.002 0.002 0.005 0.007 0.007 0.010l-0.062 0.043-0.010-0.014 0.062-0.043c0 0.002 0.002 0.002 0.002 0.005zM3.342 2.405l-0.043 0.031-0.010-0.014 0.041-0.029 0.012 0.012zM3.076 2.47l0.010 0.014-0.062 0.043c0-0.007 0.002-0.017 0.002-0.024l0.050-0.033z"></path>
<path fill="#a6a6a6" style="fill: var(--color2, #a6a6a6)" d="M2.83 2.899c0.002 0 0.005 0.002 0.005 0.005v0.007c0.014 0 0.024 0.005 0.033 0.014 0.002 0.002 0.002 0.002 0.002 0.005s-0.002 0.005-0.005 0.005c0 0-0.002 0-0.002-0.002-0.010-0.007-0.019-0.012-0.029-0.012v0.052c0.029 0.007 0.041 0.017 0.041 0.036s-0.017 0.033-0.041 0.036v0.014c0 0.002-0.002 0.005-0.005 0.005s-0.005-0.002-0.005-0.005v-0.014c-0.017-0.002-0.031-0.007-0.043-0.019-0.002 0-0.002-0.002-0.002-0.005s0.002-0.005 0.005-0.005 0.002 0 0.002 0.002c0.010 0.010 0.021 0.017 0.038 0.017v-0.055c-0.029-0.007-0.041-0.017-0.041-0.036s0.017-0.033 0.041-0.033v-0.007c0.002-0.005 0.002-0.005 0.005-0.005zM2.827 2.97v-0.052c-0.019 0-0.031 0.012-0.031 0.026 0 0.012 0.005 0.019 0.031 0.026zM2.835 2.982v0.052c0.019 0 0.031-0.012 0.031-0.026s-0.005-0.021-0.031-0.026zM2.902 3.035l0.062-0.057c0.007-0.007 0.012-0.017 0.012-0.026 0-0 0-0 0-0 0-0.009-0.004-0.018-0.010-0.024l0 0c-0.007-0.007-0.017-0.012-0.026-0.012-0-0-0.001-0-0.002-0-0.009 0-0.017 0.004-0.022 0.010l-0 0-0.007 0.005c-0.002 0.002-0.005 0.002-0.007 0s-0.002-0.005 0-0.007l0.007-0.007c0.010-0.007 0.019-0.012 0.029-0.012 0.012 0 0.024 0.005 0.031 0.014s0.012 0.019 0.012 0.029c0 0.012-0.005 0.024-0.014 0.033l-0.053 0.048h0.062c0.002 0 0.005 0.002 0.005 0.005s-0.002 0.005-0.005 0.005h-0.074c-0.002 0-0.002 0-0.002-0.002 0 0.005 0 0.002 0.002 0zM3.028 3.023c0.005 0 0.010 0.005 0.010 0.010s-0.005 0.010-0.010 0.010-0.010-0.005-0.010-0.010 0.005-0.010 0.010-0.010zM3.062 3.030c-0.002-0.002-0.002-0.005 0-0.007s0.005-0.002 0.007 0c0.007 0.007 0.017 0.010 0.026 0.010s0.019-0.002 0.026-0.010c0.007-0.007 0.010-0.017 0.010-0.026s-0.002-0.019-0.010-0.026c-0.007-0.007-0.017-0.010-0.026-0.010s-0.019 0.002-0.026 0.010c-0.002 0.002-0.005 0.002-0.007 0v-0.005l0.007-0.055c0-0.002 0-0.002 0.002-0.002h0.065c0.002 0 0.005 0.002 0.005 0.005s-0.002 0.005-0.005 0.005h-0.057l-0.005 0.041c0.007-0.005 0.014-0.007 0.024-0.007 0.012 0 0.024 0.005 0.031 0.014 0.010 0.010 0.014 0.019 0.014 0.031s-0.005 0.024-0.014 0.031c-0.010 0.010-0.021 0.014-0.031 0.014-0.017 0-0.029-0.002-0.036-0.012zM3.177 2.975c0-0.019 0.005-0.033 0.012-0.048 0.007-0.011 0.019-0.019 0.033-0.019 0 0 0 0 0 0h-0c0.014 0 0.026 0.007 0.033 0.019s0.012 0.029 0.012 0.048-0.005 0.033-0.012 0.048c-0.007 0.011-0.019 0.019-0.033 0.019-0 0-0 0-0 0h0c-0 0-0 0-0 0-0.014 0-0.026-0.008-0.033-0.019l-0-0c-0.010-0.012-0.012-0.029-0.012-0.048zM3.184 2.975c0 0.017 0.005 0.031 0.012 0.041s0.017 0.017 0.026 0.017c0.010 0 0.019-0.005 0.026-0.017 0.007-0.010 0.012-0.024 0.012-0.041s-0.005-0.031-0.012-0.041c-0.007-0.010-0.017-0.017-0.026-0.017s-0.019 0.005-0.026 0.017c-0.007 0.010-0.012 0.026-0.012 0.041z"></path>
<path fill="#ffd8d0" style="fill: var(--color9, #ffd8d0)" d="M4.474 1.764h-0.413c-0.177 0-0.32 0.143-0.32 0.32v0 0.409c0 0.177 0.143 0.32 0.32 0.32v0h0.413c0.177 0 0.32-0.143 0.32-0.32v0-0.409c0-0.177-0.143-0.32-0.32-0.32v0z"></path>
<path fill="#fff" style="fill: var(--color4, #fff)" d="M4.452 2.429c0.085 0.086 0.172 0.176 0.259 0.267l0.009 0.010c-0.007 0.036-0.048 0.045-0.048 0.045s-0.139-0.141-0.27-0.272l-0.024-0.024c-0.012-0.012-0.025-0.025-0.037-0.037l-0.001-0.001c-0.019-0.019-0.038-0.038-0.055-0.057l-0.010-0.010c-0.055-0.055-0.096-0.095-0.108-0.11-0.060-0.062-0.354-0.188-0.354-0.188s-0.024-0.017 0.007-0.057c0 0 0.115 0.055 0.22 0.107l-0.249-0.157s-0.002-0.024 0.022-0.043l0.141 0.093-0.127-0.122s0.002-0.019 0.038-0.036l0.22 0.226-0.155-0.205s0.017-0.021 0.038-0.029c0 0 0.096 0.145 0.232 0.324l-0.141-0.241s0.012-0.017 0.038-0.019c0 0 0.112 0.265 0.23 0.4 0.002 0.002 0.005 0.007 0.010 0.010 0.005 0.005 0.010 0.010 0.012 0.014l0.091 0.091c0.002 0.010 0.007 0.014 0.012 0.019z"></path>
<path fill="#455a64" style="fill: var(--color10, #455a64)" d="M4.095 1.902s0.112 0.265 0.23 0.4l-0.050 0.048c-0.055-0.055-0.096-0.095-0.108-0.11-0.060-0.062-0.354-0.188-0.354-0.188s-0.024-0.017 0.007-0.057c0 0 0.115 0.055 0.22 0.107l-0.249-0.157s-0.002-0.024 0.022-0.043l0.141 0.093-0.127-0.122s0.002-0.019 0.038-0.036l0.22 0.226-0.155-0.205s0.017-0.021 0.038-0.029c0 0 0.096 0.145 0.232 0.324l-0.141-0.241c-0.002 0.007 0.007-0.010 0.036-0.012zM4.39 2.369l-0.050 0.048c-0.019-0.019-0.038-0.038-0.055-0.057l0.050-0.048c0.005 0.005 0.010 0.010 0.012 0.014l0.043 0.043zM4.428 2.405l-0.050 0.048-0.029-0.029 0.050-0.048c0.010 0.012 0.019 0.019 0.029 0.029zM4.452 2.429l-0.050 0.048-0.014-0.014 0.050-0.048 0.014 0.014z"></path>
<path fill="#a6a6a6" style="fill: var(--color2, #a6a6a6)" d="M4.086 2.899c0.002 0 0.005 0.002 0.005 0.005v0.007c0.014 0 0.024 0.005 0.033 0.014 0.002 0.002 0.002 0.002 0.002 0.005s-0.002 0.005-0.005 0.005c0 0-0.002 0-0.002-0.002-0.010-0.007-0.019-0.012-0.029-0.012v0.052c0.029 0.007 0.041 0.017 0.041 0.036s-0.017 0.033-0.041 0.036v0.014c0 0.002-0.002 0.005-0.005 0.005s-0.005-0.002-0.005-0.005v-0.014c-0.017-0.002-0.031-0.007-0.043-0.019-0.002 0-0.002-0.002-0.002-0.005s0.002-0.005 0.005-0.005c0.002 0 0.002 0 0.002 0.002 0.010 0.010 0.022 0.017 0.038 0.017v-0.055c-0.029-0.007-0.041-0.017-0.041-0.036s0.017-0.033 0.041-0.033v-0.007c0-0.005 0-0.005 0.005-0.005zM4.081 2.97v-0.052c-0.019 0-0.031 0.012-0.031 0.026 0 0.012 0.005 0.019 0.031 0.026zM4.088 2.982v0.052c0.019 0 0.031-0.012 0.031-0.026s-0.005-0.021-0.031-0.026zM4.177 2.923l-0.019 0.012h-0.002c-0.002 0-0.002 0-0.005-0.002s0-0.005 0.002-0.007l0.026-0.017c0.002 0 0.005 0 0.007 0.002v0.124c0 0.002-0.002 0.005-0.005 0.005s-0.005-0.002-0.005-0.005v-0.112zM4.234 3.023c0.005 0 0.010 0.005 0.010 0.010s-0.005 0.010-0.010 0.010c-0.005-0-0.009-0.004-0.010-0.010v-0c0-0.005 0.005-0.010 0.010-0.010zM4.26 2.975c0-0.019 0.005-0.033 0.012-0.048 0.007-0.011 0.019-0.019 0.033-0.019 0 0 0 0 0 0h-0c0.014 0 0.026 0.007 0.033 0.019s0.012 0.029 0.012 0.048-0.005 0.033-0.012 0.048c-0.007 0.011-0.019 0.019-0.033 0.019-0 0-0 0-0 0h0c-0 0-0 0-0 0-0.014 0-0.026-0.008-0.033-0.019l-0-0c-0.007-0.012-0.012-0.029-0.012-0.048zM4.27 2.975c0 0.017 0.005 0.031 0.012 0.041s0.017 0.017 0.026 0.017c0.010 0 0.019-0.005 0.026-0.017 0.007-0.010 0.012-0.024 0.012-0.041s-0.005-0.031-0.012-0.041c-0.007-0.010-0.017-0.017-0.026-0.017s-0.019 0.005-0.026 0.017c-0.007 0.010-0.012 0.026-0.012 0.041zM4.397 2.975c0-0.019 0.005-0.033 0.012-0.048 0.007-0.011 0.019-0.019 0.033-0.019 0 0 0 0 0 0h-0c0.014 0 0.026 0.007 0.034 0.019s0.012 0.029 0.012 0.048-0.005 0.033-0.012 0.048c-0.007 0.011-0.019 0.019-0.033 0.019-0 0-0 0-0 0h0c-0 0-0 0-0 0-0.014 0-0.026-0.008-0.033-0.019l-0-0c-0.007-0.012-0.012-0.029-0.012-0.048zM4.406 2.975c0 0.017 0.005 0.031 0.012 0.041s0.017 0.017 0.026 0.017c0.010 0 0.019-0.005 0.026-0.017 0.007-0.010 0.012-0.024 0.012-0.041s-0.005-0.031-0.012-0.041c-0.007-0.010-0.017-0.017-0.026-0.017s-0.019 0.005-0.026 0.017c-0.007 0.010-0.012 0.026-0.012 0.041z"></path>
<path fill="#ffd8d0" style="fill: var(--color9, #ffd8d0)" d="M5.715 1.764h-0.413c-0.177 0-0.32 0.143-0.32 0.32v0 0.409c0 0.177 0.143 0.32 0.32 0.32v0h0.413c0.177 0 0.32-0.143 0.32-0.32v0-0.409c0-0.177-0.143-0.32-0.32-0.32v0z"></path>
<path fill="#fff" style="fill: var(--color4, #fff)" d="M5.196 2.415c0.081 0.267 0.335 0.234 0.407 0.212s0.299-0.133 0.218-0.403c-0.081-0.267-0.352-0.205-0.399-0.191-0.055 0.017-0.306 0.114-0.225 0.381z"></path>
<path fill="#455a64" style="fill: var(--color10, #455a64)" d="M5.444 2.072s0.012 0.1 0.189 0.041c-0.002 0-0.122-0.129-0.189-0.041z"></path>
<path fill="#455a64" style="fill: var(--color10, #455a64)" d="M5.461 2.112s0.084 0.005 0.060-0.145c0 0-0.12 0.079-0.060 0.145z"></path>
<path fill="#455a64" style="fill: var(--color10, #455a64)" d="M5.454 2.086s-0.029 0.079-0.158-0.005c0 0 0.122-0.079 0.158 0.005z"></path>
<path fill="#455a64" style="fill: var(--color10, #455a64)" d="M5.449 2.067s-0.077 0.064 0.072 0.179c0-0.002 0.038-0.172-0.072-0.179z"></path>
<path fill="#455a64" style="fill: var(--color10, #455a64)" d="M5.44 2.081s-0.112-0.031-0.098 0.16c0.002 0 0.172-0.060 0.098-0.16z"></path>
<path fill="#263238" style="fill: var(--color7, #263238)" d="M5.459 2.105s0.014-0.1-0.069-0.169c0 0-0.048 0-0.060 0.050 0 0 0.096 0.052 0.103 0.141l0.022-0.014z"></path>
<path fill="#a6a6a6" style="fill: var(--color2, #a6a6a6)" d="M5.33 2.899c0.002 0 0.005 0.002 0.005 0.005v0.007c0.014 0 0.024 0.005 0.033 0.014 0.002 0.002 0.002 0.002 0.002 0.005s-0.002 0.005-0.005 0.005c0 0-0.002 0-0.002-0.002-0.010-0.007-0.019-0.012-0.029-0.012v0.052c0.029 0.007 0.041 0.017 0.041 0.036s-0.017 0.033-0.041 0.036v0.014c0 0.002-0.002 0.005-0.005 0.005s-0.005-0.002-0.005-0.005v-0.014c-0.017-0.002-0.031-0.007-0.043-0.019-0.002 0-0.002-0.002-0.002-0.005s0.002-0.005 0.005-0.005 0.002 0 0.002 0.002c0.010 0.010 0.022 0.017 0.038 0.017v-0.055c-0.029-0.007-0.041-0.017-0.041-0.036s0.017-0.033 0.041-0.033v-0.007c0-0.005 0.002-0.005 0.005-0.005zM5.325 2.97v-0.052c-0.019 0-0.031 0.012-0.031 0.026 0.002 0.012 0.007 0.019 0.031 0.026zM5.334 2.982v0.052c0.019 0 0.031-0.012 0.031-0.026s-0.007-0.021-0.031-0.026zM5.423 2.923l-0.019 0.012h-0.002c-0.002 0-0.002 0-0.005-0.002s0-0.005 0.002-0.007l0.026-0.017c0.002 0 0.005 0 0.007 0.002v0.124c0 0.002-0.002 0.005-0.005 0.005s-0.005-0.002-0.005-0.005v-0.112zM5.478 3.023c0.005 0 0.010 0.005 0.010 0.010s-0.005 0.010-0.010 0.010c-0.005 0-0.010-0.005-0.010-0.010s0.005-0.010 0.010-0.010zM5.511 3.030c-0.002-0.002-0.002-0.005 0-0.007s0.005-0.002 0.007 0c0.007 0.007 0.017 0.010 0.026 0.010s0.019-0.002 0.026-0.010c0.007-0.007 0.010-0.017 0.010-0.026s-0.002-0.019-0.010-0.026c-0.007-0.007-0.017-0.010-0.026-0.010s-0.019 0.002-0.026 0.010c-0.002 0.002-0.005 0.002-0.007 0v-0.005l0.007-0.055c0-0.002 0-0.002 0.002-0.002h0.065c0.002 0 0.005 0.002 0.005 0.005s-0.002 0.005-0.005 0.005h-0.060l-0.005 0.041c0.006-0.004 0.014-0.007 0.023-0.007 0 0 0.001 0 0.001 0h-0c0.012 0 0.024 0.005 0.031 0.014 0.010 0.010 0.014 0.019 0.014 0.031s-0.005 0.024-0.014 0.031c-0.010 0.010-0.022 0.014-0.031 0.014-0.014 0-0.024-0.002-0.034-0.012zM5.626 2.975c0-0.019 0.005-0.033 0.012-0.048 0.007-0.011 0.019-0.019 0.033-0.019 0 0 0 0 0 0h-0c0.014 0 0.026 0.007 0.033 0.019s0.012 0.029 0.012 0.048-0.005 0.033-0.012 0.048c-0.007 0.011-0.019 0.019-0.033 0.019-0 0-0 0-0 0h0c-0 0-0 0-0 0-0.014 0-0.026-0.008-0.033-0.019l-0-0c-0.007-0.012-0.012-0.029-0.012-0.048zM5.636 2.975c0 0.017 0.005 0.031 0.012 0.041s0.017 0.017 0.026 0.017 0.019-0.005 0.026-0.017c0.007-0.010 0.012-0.024 0.012-0.041s-0.005-0.031-0.012-0.041c-0.007-0.010-0.017-0.017-0.026-0.017s-0.019 0.005-0.026 0.017c-0.007 0.010-0.012 0.026-0.012 0.041z"></path>
<path fill="#ffd8d0" style="fill: var(--color9, #ffd8d0)" d="M3.23 3.294h-0.413c-0.177 0-0.32 0.143-0.32 0.32v0 0.409c0 0.177 0.143 0.32 0.32 0.32v0h0.413c0.177 0 0.32-0.143 0.32-0.32v0-0.409c0-0.177-0.143-0.32-0.32-0.32v0z"></path>
<path fill="#fff" style="fill: var(--color4, #fff)" d="M3.315 3.728v0.517c0 0.031-0.065 0.050-0.282 0.050s-0.28-0.019-0.28-0.050v-0.517c0-0.138 0.153-0.226 0.153-0.255v-0.105h0.256v0.105c0 0.029 0.153 0.117 0.153 0.255z"></path>
<path fill="#37474f" style="fill: var(--color12, #37474f)" d="M3.179 3.323h-0.287v0.088h0.287v-0.088zM3.315 3.867h-0.562v0.279h0.562v-0.279z"></path>
<path fill="#a6a6a6" style="fill: var(--color2, #a6a6a6)" d="M2.82 4.436c0.002 0 0.005 0.002 0.005 0.005v0.007c0.014 0 0.024 0.005 0.033 0.014 0.002 0.002 0.002 0.002 0.002 0.005s-0.002 0.005-0.005 0.005c0 0-0.002 0-0.002-0.002-0.010-0.007-0.019-0.012-0.029-0.012v0.052c0.029 0.007 0.041 0.017 0.041 0.036s-0.017 0.033-0.041 0.036v0.014c0 0.002-0.002 0.005-0.005 0.005s-0.005-0.002-0.005-0.005v-0.014c-0.017-0.002-0.031-0.007-0.043-0.019-0.002 0-0.002-0.002-0.002-0.005s0.002-0.005 0.005-0.005 0.002 0 0.002 0.002c0.010 0.010 0.022 0.017 0.038 0.017v-0.055c-0.029-0.007-0.041-0.017-0.041-0.036s0.017-0.033 0.041-0.033v-0.007c0-0.002 0.002-0.005 0.005-0.005zM2.818 4.508v-0.052c-0.019 0-0.031 0.012-0.031 0.026 0 0.012 0.005 0.021 0.031 0.026zM2.825 4.52v0.052c0.019 0 0.031-0.012 0.031-0.026 0-0.012-0.007-0.021-0.031-0.026zM2.971 4.455l-0.033 0.036c0.010 0.002 0.017 0.005 0.024 0.012 0.010 0.010 0.014 0.021 0.014 0.031 0 0.012-0.005 0.024-0.014 0.031-0.010 0.010-0.021 0.014-0.031 0.014-0.012 0-0.024-0.005-0.031-0.014-0.002-0.002-0.002-0.005 0-0.007s0.005-0.002 0.007 0c0.007 0.007 0.017 0.010 0.026 0.010s0.019-0.002 0.026-0.010c0.007-0.007 0.010-0.017 0.010-0.026s-0.002-0.019-0.010-0.026-0.017-0.010-0.026-0.010c-0.002 0-0.002 0-0.005-0.002s-0.002-0.005 0-0.007l0.034-0.033h-0.050c-0.002 0-0.005-0.002-0.005-0.005s0.002-0.005 0.005-0.005h0.062c0.002 0 0.005 0.002 0.005 0.005l-0.007 0.007c0.002 0 0.002 0 0 0zM3.024 4.563c0.005 0 0.010 0.005 0.010 0.010s-0.005 0.010-0.010 0.010c-0.005 0-0.010-0.005-0.010-0.010 0-0.007 0.002-0.010 0.010-0.010zM3.050 4.515c0-0.019 0.005-0.033 0.012-0.048 0.007-0.011 0.019-0.019 0.033-0.019 0 0 0 0 0 0h-0c0.014 0 0.026 0.007 0.033 0.019s0.012 0.029 0.012 0.048c0 0.019-0.005 0.033-0.012 0.048-0.007 0.011-0.019 0.019-0.033 0.019-0 0-0 0-0 0h0c-0 0-0 0-0 0-0.014 0-0.026-0.008-0.033-0.019l-0-0c-0.007-0.014-0.012-0.030-0.012-0.048v-0zM3.060 4.515c0 0.017 0.005 0.031 0.012 0.041s0.017 0.017 0.026 0.017c0.010 0 0.019-0.005 0.026-0.017 0.007-0.010 0.012-0.024 0.012-0.041s-0.005-0.031-0.012-0.041c-0.007-0.010-0.017-0.017-0.026-0.017s-0.019 0.005-0.026 0.017c-0.007 0.010-0.012 0.024-0.012 0.041zM3.186 4.515c0-0.019 0.005-0.033 0.012-0.048 0.007-0.011 0.019-0.019 0.033-0.019 0 0 0 0 0 0h-0c0.014 0 0.026 0.007 0.033 0.019s0.012 0.029 0.012 0.048c0 0.019-0.005 0.033-0.012 0.048-0.007 0.011-0.019 0.019-0.033 0.019-0 0-0 0-0 0h0c-0 0-0 0-0 0-0.014 0-0.026-0.008-0.033-0.019l-0-0c-0.007-0.014-0.012-0.030-0.012-0.048v-0zM3.196 4.515c0 0.017 0.005 0.031 0.012 0.041s0.017 0.017 0.026 0.017c0.010 0 0.019-0.005 0.026-0.017 0.007-0.010 0.012-0.024 0.012-0.041s-0.005-0.031-0.012-0.041c-0.007-0.010-0.017-0.017-0.026-0.017s-0.019 0.005-0.026 0.017c-0.007 0.010-0.012 0.024-0.012 0.041z"></path>
<path fill="#ffd8d0" style="fill: var(--color9, #ffd8d0)" d="M4.474 3.294h-0.413c-0.177 0-0.32 0.143-0.32 0.32v0 0.409c0 0.177 0.143 0.32 0.32 0.32v0h0.413c0.177 0 0.32-0.143 0.32-0.32v0-0.409c0-0.177-0.143-0.32-0.32-0.32v0z"></path>
<path fill="#fff" style="fill: var(--color4, #fff)" d="M4.49 3.521h-0.438v0.775h0.438v-0.775z"></path>
<path fill="#455a64" style="fill: var(--color10, #455a64)" d="M4.49 3.807h-0.438v0.327h0.438v-0.327z"></path>
<path fill="#fff" style="fill: var(--color4, #fff)" d="M4.49 3.521h-0.438l0.055-0.107h0.33l0.053 0.107z"></path>
<path fill="#dbdbdb" style="fill: var(--color11, #dbdbdb)" d="M4.49 3.521h-0.438l0.055-0.107h0.33l0.053 0.107z"></path>
<path fill="#fff" style="fill: var(--color4, #fff)" d="M4.435 3.323h-0.33v0.091h0.33v-0.091z"></path>
<path fill="#a6a6a6" style="fill: var(--color2, #a6a6a6)" d="M4.069 4.436c0.002 0 0.005 0.002 0.005 0.005v0.007c0.014 0 0.024 0.005 0.033 0.014 0.002 0.002 0.002 0.002 0.002 0.005s-0.002 0.005-0.005 0.005c0 0-0.002 0-0.002-0.002-0.010-0.007-0.019-0.012-0.029-0.012v0.052c0.029 0.007 0.041 0.017 0.041 0.036s-0.017 0.033-0.041 0.036v0.014c0 0.002-0.002 0.005-0.005 0.005s-0.005-0.002-0.005-0.005v-0.014c-0.017-0.002-0.031-0.007-0.043-0.019-0.002 0-0.002-0.002-0.002-0.005s0.002-0.005 0.005-0.005 0.002 0 0.002 0.002c0.010 0.010 0.022 0.017 0.038 0.017v-0.055c-0.029-0.007-0.041-0.017-0.041-0.036s0.017-0.033 0.041-0.033v-0.007c0-0.002 0.002-0.005 0.005-0.005zM4.064 4.508v-0.052c-0.019 0-0.031 0.012-0.031 0.026 0 0.012 0.007 0.021 0.031 0.026zM4.071 4.52v0.052c0.019 0 0.031-0.012 0.031-0.026 0.002-0.012-0.005-0.021-0.031-0.026zM4.138 4.572l0.062-0.057c0.007-0.007 0.012-0.017 0.012-0.026 0-0 0-0 0-0 0-0.009-0.004-0.018-0.010-0.024l0 0c-0.007-0.007-0.017-0.012-0.026-0.012-0-0-0.001-0-0.002-0-0.009 0-0.017 0.004-0.022 0.010l-0 0-0.007 0.005c-0.002 0.002-0.005 0.002-0.007 0s-0.002-0.005 0-0.007l0.007-0.007c0.010-0.007 0.019-0.012 0.029-0.012 0.012 0 0.024 0.005 0.031 0.014s0.012 0.019 0.012 0.029c0 0.012-0.005 0.024-0.014 0.033l-0.053 0.048h0.062c0.002 0 0.005 0.002 0.005 0.005s-0.002 0.005-0.005 0.005h-0.074c-0.002 0-0.002 0-0.002-0.002 0 0.005 0 0.002 0.002 0zM4.265 4.563c0.005 0 0.010 0.005 0.010 0.010s-0.005 0.010-0.010 0.010c-0.005 0-0.010-0.005-0.010-0.010 0-0.007 0.005-0.010 0.010-0.010zM4.299 4.567c-0.002-0.002-0.002-0.005 0-0.007s0.005-0.002 0.007 0c0.007 0.007 0.017 0.010 0.026 0.010s0.019-0.002 0.026-0.010c0.007-0.007 0.010-0.017 0.010-0.026s-0.002-0.019-0.010-0.026c-0.007-0.007-0.017-0.010-0.026-0.010s-0.019 0.002-0.026 0.010c-0.002 0.002-0.005 0.002-0.007 0v-0.005l0.007-0.055c0-0.002 0-0.002 0.002-0.002h0.065c0.002 0 0.005 0.002 0.005 0.005s-0.002 0.005-0.005 0.005h-0.057l-0.005 0.041c0.007-0.005 0.014-0.007 0.024-0.007 0.012 0 0.024 0.005 0.031 0.014 0.010 0.010 0.014 0.019 0.014 0.031s-0.005 0.024-0.014 0.031c-0.010 0.010-0.022 0.014-0.031 0.014-0.017 0.002-0.029-0.002-0.036-0.012zM4.413 4.515c0-0.019 0.005-0.033 0.012-0.048 0.007-0.011 0.019-0.019 0.033-0.019 0 0 0 0 0 0h-0c0.014 0 0.026 0.007 0.033 0.019s0.012 0.029 0.012 0.048c0 0.019-0.005 0.033-0.012 0.048-0.007 0.011-0.019 0.019-0.033 0.019-0 0-0 0-0 0h0c-0 0-0 0-0 0-0.014 0-0.026-0.008-0.033-0.019l-0-0c-0.007-0.014-0.012-0.030-0.012-0.048v-0zM4.423 4.515c0 0.017 0.005 0.031 0.012 0.041s0.017 0.017 0.026 0.017 0.019-0.005 0.026-0.017c0.007-0.010 0.012-0.024 0.012-0.041s-0.005-0.031-0.012-0.041c-0.007-0.010-0.017-0.017-0.026-0.017s-0.019 0.005-0.026 0.017c-0.007 0.010-0.012 0.024-0.012 0.041z"></path>
<path fill="#ffd8d0" style="fill: var(--color9, #ffd8d0)" d="M5.715 3.294h-0.413c-0.177 0-0.32 0.143-0.32 0.32v0 0.409c0 0.177 0.143 0.32 0.32 0.32v0h0.413c0.177 0 0.32-0.143 0.32-0.32v0-0.409c0-0.177-0.143-0.32-0.32-0.32v0z"></path>
<path fill="#fff" style="fill: var(--color4, #fff)" d="M5.712 3.728v0.517c0 0.031-0.045 0.050-0.203 0.050-0.155 0-0.203-0.019-0.203-0.050v-0.517c0-0.138 0.11-0.226 0.11-0.255v-0.105h0.184v0.105c0.002 0.029 0.112 0.117 0.112 0.255z"></path>
<path fill="#455a64" style="fill: var(--color10, #455a64)" d="M5.612 3.323h-0.206v0.088h0.206v-0.088z"></path>
<path fill="#dbdbdb" style="fill: var(--color11, #dbdbdb)" d="M5.653 3.905h-0.289v0.2h0.289v-0.2z"></path>
<path fill="#a6a6a6" style="fill: var(--color2, #a6a6a6)" d="M5.299 4.436c0.002 0 0.005 0.002 0.005 0.005v0.007c0.014 0 0.024 0.005 0.033 0.014 0.002 0.002 0.002 0.002 0.002 0.005s-0.002 0.005-0.005 0.005c0 0-0.002 0-0.002-0.002-0.010-0.007-0.019-0.012-0.029-0.012v0.052c0.029 0.007 0.041 0.017 0.041 0.036s-0.017 0.033-0.041 0.036v0.014c0 0.002-0.002 0.005-0.005 0.005s-0.005-0.002-0.005-0.005v-0.014c-0.017-0.002-0.031-0.007-0.043-0.019-0.002 0-0.002-0.002-0.002-0.005s0.002-0.005 0.005-0.005 0.002 0 0.002 0.002c0.010 0.010 0.022 0.017 0.038 0.017v-0.055c-0.029-0.007-0.041-0.017-0.041-0.036s0.017-0.033 0.041-0.033v-0.007c0-0.002 0.002-0.005 0.005-0.005zM5.294 4.508v-0.052c-0.019 0-0.031 0.012-0.031 0.026 0 0.012 0.007 0.021 0.031 0.026zM5.301 4.52v0.052c0.019 0 0.031-0.012 0.031-0.026 0.002-0.012-0.005-0.021-0.031-0.026zM5.368 4.572l0.062-0.057c0.007-0.007 0.012-0.017 0.012-0.026 0-0 0-0 0-0 0-0.009-0.004-0.018-0.010-0.024l0 0c-0.007-0.007-0.017-0.012-0.026-0.012-0-0-0.001-0-0.002-0-0.009 0-0.017 0.004-0.022 0.010l-0 0-0.007 0.005c-0.002 0.002-0.005 0.002-0.007 0s-0.002-0.005 0-0.007l0.007-0.007c0.010-0.007 0.019-0.012 0.029-0.012 0.012 0 0.024 0.005 0.031 0.014s0.012 0.019 0.012 0.029c0 0.012-0.005 0.024-0.014 0.033l-0.053 0.048h0.062c0.002 0 0.005 0.002 0.005 0.005s-0.002 0.005-0.005 0.005h-0.074c-0.002 0-0.002 0-0.002-0.002 0 0.005 0 0.002 0.002 0zM5.495 4.563c0.005 0 0.010 0.005 0.010 0.010s-0.005 0.010-0.010 0.010c-0.005 0-0.010-0.005-0.010-0.010 0-0.007 0.005-0.010 0.010-0.010zM5.523 4.515c0-0.019 0.005-0.033 0.012-0.048 0.007-0.011 0.019-0.019 0.033-0.019 0 0 0 0 0 0h-0c0.014 0 0.026 0.007 0.033 0.019s0.012 0.029 0.012 0.048c0 0.019-0.005 0.033-0.012 0.048-0.007 0.011-0.019 0.019-0.033 0.019-0 0-0 0-0 0h0c-0 0-0 0-0 0-0.014 0-0.026-0.008-0.033-0.019l-0-0c-0.007-0.014-0.012-0.030-0.012-0.048v-0zM5.533 4.515c0 0.017 0.005 0.031 0.012 0.041s0.017 0.017 0.026 0.017c0.010 0 0.019-0.005 0.026-0.017 0.007-0.010 0.012-0.024 0.012-0.041s-0.005-0.031-0.012-0.041c-0.007-0.010-0.017-0.017-0.026-0.017s-0.019 0.005-0.026 0.017c-0.010 0.010-0.012 0.024-0.012 0.041zM5.657 4.515c0-0.019 0.005-0.033 0.012-0.048 0.007-0.011 0.019-0.019 0.033-0.019 0 0 0 0 0 0h-0c0.014 0 0.026 0.007 0.033 0.019s0.012 0.029 0.012 0.048c0 0.019-0.005 0.033-0.012 0.048-0.007 0.011-0.019 0.019-0.033 0.019-0 0-0 0-0 0h0c-0 0-0 0-0 0-0.014 0-0.026-0.008-0.033-0.019l-0-0c-0.007-0.014-0.012-0.030-0.012-0.048v-0zM5.667 4.515c0 0.017 0.005 0.031 0.012 0.041s0.017 0.017 0.026 0.017c0.010 0 0.019-0.005 0.026-0.017 0.007-0.010 0.012-0.024 0.012-0.041s-0.005-0.031-0.012-0.041c-0.007-0.010-0.017-0.017-0.026-0.017s-0.019 0.005-0.026 0.017c-0.007 0.010-0.012 0.024-0.012 0.041z"></path>
<path fill="#ffd8d0" style="fill: var(--color9, #ffd8d0)" d="M3.23 5.256h-0.413c-0.177 0-0.32 0.143-0.32 0.32v0 0.409c0 0.177 0.143 0.32 0.32 0.32v0h0.413c0.177 0 0.32-0.143 0.32-0.32v0-0.409c0-0.177-0.143-0.32-0.32-0.32v0z"></path>
<path fill="#fff" style="fill: var(--color4, #fff)" d="M2.78 5.797c0 0.184 0.074 0.472 0.084 0.472h0.309c0.010 0 0.115-0.246 0.115-0.493 0-0.257-0.179-0.303-0.179-0.319v-0.102h-0.182v0.1c0 0.019-0.146 0.114-0.146 0.343zM3.126 5.54c0.089 0 0.16 0.241 0.096 0.265-0.091 0.033-0.177-0.265-0.096-0.265z"></path>
<path fill="#ebebeb" style="fill: var(--color13, #ebebeb)" d="M3.040 5.54c0.005-0.062-0.132-0.048-0.189 0.155-0.043 0.153 0.005 0.47 0.158 0.47 0.182 0 0.194-0.267 0.182-0.279-0.010-0.012-0.172-0.069-0.151-0.346z"></path>
<path fill="#455a64" style="fill: var(--color10, #455a64)" d="M2.89 5.411h0.256l-0.017-0.112h-0.222l-0.017 0.112z"></path>
<path fill="#a6a6a6" style="fill: var(--color2, #a6a6a6)" d="M2.82 6.436c0.002 0 0.005 0.002 0.005 0.005v0.007c0.014 0 0.024 0.005 0.033 0.014 0.002 0.002 0.002 0.002 0.002 0.005s-0.002 0.005-0.005 0.005c0 0-0.002 0-0.002-0.002-0.010-0.007-0.019-0.012-0.029-0.012v0.052c0.029 0.007 0.041 0.017 0.041 0.036s-0.017 0.033-0.041 0.036v0.014c0 0.002-0.002 0.005-0.005 0.005s-0.005-0.002-0.005-0.005v-0.014c-0.017-0.002-0.031-0.007-0.043-0.019-0.002 0-0.002-0.002-0.002-0.005s0.002-0.005 0.005-0.005 0.002 0 0.002 0.002c0.010 0.010 0.022 0.017 0.038 0.017v-0.055c-0.029-0.007-0.041-0.017-0.041-0.036s0.017-0.033 0.041-0.033v-0.007c0.002-0.002 0.002-0.005 0.005-0.005zM2.818 6.51v-0.052c-0.019 0-0.031 0.012-0.031 0.026 0 0.012 0.005 0.019 0.031 0.026zM2.825 6.522v0.052c0.019 0 0.031-0.012 0.031-0.026s-0.005-0.021-0.031-0.026zM2.894 6.57c-0.002-0.002-0.002-0.005 0-0.007s0.005-0.002 0.007 0c0.007 0.007 0.017 0.010 0.026 0.010s0.019-0.002 0.026-0.010c0.007-0.007 0.010-0.017 0.010-0.026s-0.002-0.019-0.010-0.026-0.017-0.010-0.026-0.010c-0.010 0-0.019 0.002-0.026 0.010-0.002 0.002-0.005 0.002-0.007 0v-0.005l0.007-0.055c0-0.002 0-0.002 0.002-0.002h0.065c0.002 0 0.005 0.002 0.005 0.005s-0.002 0.005-0.005 0.005h-0.057l-0.005 0.041c0.007-0.005 0.014-0.007 0.024-0.007 0.012 0 0.024 0.005 0.031 0.014 0.010 0.010 0.014 0.019 0.014 0.031s-0.005 0.024-0.014 0.031c-0.010 0.010-0.021 0.014-0.031 0.014-0.014 0-0.026-0.002-0.036-0.012zM3.021 6.563c0.005 0 0.010 0.005 0.010 0.010s-0.005 0.010-0.010 0.010c-0.005 0-0.010-0.005-0.010-0.010s0.005-0.010 0.010-0.010zM3.050 6.515c0-0.019 0.005-0.033 0.012-0.048 0.007-0.011 0.019-0.019 0.033-0.019 0 0 0 0 0 0h-0c0.014 0 0.026 0.007 0.033 0.019s0.012 0.029 0.012 0.048c0 0.019-0.005 0.033-0.012 0.048-0.007 0.011-0.019 0.019-0.033 0.019-0 0-0 0-0 0h0c-0 0-0 0-0 0-0.014 0-0.026-0.008-0.033-0.019l-0-0c-0.007-0.012-0.012-0.029-0.012-0.048zM3.060 6.515c0 0.017 0.005 0.031 0.012 0.041s0.017 0.017 0.026 0.017c0.010 0 0.019-0.005 0.026-0.017 0.007-0.010 0.012-0.024 0.012-0.041s-0.005-0.031-0.012-0.041c-0.007-0.010-0.017-0.017-0.026-0.017s-0.019 0.005-0.026 0.017c-0.007 0.010-0.012 0.026-0.012 0.041zM3.186 6.515c0-0.019 0.005-0.033 0.012-0.048 0.007-0.011 0.019-0.019 0.033-0.019 0 0 0 0 0 0h-0c0.014 0 0.026 0.007 0.033 0.019s0.012 0.029 0.012 0.048c0 0.019-0.005 0.033-0.012 0.048-0.007 0.011-0.019 0.019-0.033 0.019-0 0-0 0-0 0h0c-0 0-0 0-0 0-0.014 0-0.026-0.008-0.033-0.019l-0-0c-0.010-0.012-0.012-0.029-0.012-0.048zM3.193 6.515c0 0.017 0.005 0.031 0.012 0.041s0.017 0.017 0.026 0.017c0.010 0 0.019-0.005 0.026-0.017 0.007-0.010 0.012-0.024 0.012-0.041s-0.005-0.031-0.012-0.041c-0.007-0.010-0.017-0.017-0.026-0.017s-0.019 0.005-0.026 0.017c-0.007 0.010-0.012 0.026-0.012 0.041z"></path>
<path fill="#ffd8d0" style="fill: var(--color9, #ffd8d0)" d="M4.474 5.256h-0.413c-0.177 0-0.32 0.143-0.32 0.32v0 0.409c0 0.177 0.143 0.32 0.32 0.32v0h0.413c0.177 0 0.32-0.143 0.32-0.32v0-0.409c0-0.177-0.143-0.32-0.32-0.32v0z"></path>
<path fill="#fff" style="fill: var(--color4, #fff)" d="M4.571 6.112h-0.605c-0 0-0 0-0 0-0.061 0-0.11-0.049-0.11-0.11 0-0 0-0 0-0v0-0.365c0-0 0-0 0-0 0-0.061 0.049-0.11 0.11-0.11 0 0 0 0 0 0h0.605c0 0 0 0 0 0 0.061 0 0.11 0.049 0.11 0.11 0 0 0 0 0 0v0 0.365c0 0.060-0.050 0.11-0.11 0.11z"></path>
<path fill="#455a64" style="fill: var(--color10, #455a64)" d="M4.588 5.456h-0.636v0.074h0.636v-0.074zM4.684 5.671h-0.828v0.3h0.828v-0.3z"></path>
<path fill="#fff" style="fill: var(--color4, #fff)" d="M4.521 5.819c0 0.069-0.112 0.126-0.251 0.126s-0.251-0.057-0.251-0.126 0.112-0.126 0.251-0.126c0.139 0 0.251 0.057 0.251 0.126z"></path>
<path fill="#a6a6a6" style="fill: var(--color2, #a6a6a6)" d="M4.062 6.436c0.002 0 0.005 0.002 0.005 0.005v0.007c0.014 0 0.024 0.005 0.033 0.014 0.002 0.002 0.002 0.002 0.002 0.005s-0.002 0.005-0.005 0.005c0 0-0.002 0-0.002-0.002-0.010-0.007-0.019-0.012-0.029-0.012v0.052c0.029 0.007 0.041 0.017 0.041 0.036s-0.017 0.033-0.041 0.036v0.014c0 0.002-0.002 0.005-0.005 0.005s-0.005-0.002-0.005-0.005v-0.014c-0.017-0.002-0.031-0.007-0.043-0.019-0.002 0-0.002-0.002-0.002-0.005s0.002-0.005 0.005-0.005c0.002 0 0.002 0 0.002 0.002 0.010 0.010 0.022 0.017 0.038 0.017v-0.055c-0.029-0.007-0.041-0.017-0.041-0.036s0.017-0.033 0.041-0.033v-0.007c0-0.002 0.002-0.005 0.005-0.005zM4.057 6.51v-0.052c-0.019 0-0.031 0.012-0.031 0.026 0 0.012 0.007 0.019 0.031 0.026zM4.067 6.522v0.052c0.019 0 0.031-0.012 0.031-0.026s-0.007-0.021-0.031-0.026zM4.208 6.555h-0.074c-0.002-0.002-0.002-0.005 0-0.007l0.077-0.095c0.002-0.002 0.005-0.002 0.007 0 0 0 0 0.002 0.002 0.002v0.091h0.010c0.002 0 0.005 0.002 0.005 0.005s-0.002 0.005-0.005 0.005h-0.010v0.024c0 0.002-0.002 0.005-0.005 0.005s-0.005-0.002-0.005-0.005v-0.024h-0.002zM4.208 6.546v-0.079l-0.062 0.079h0.062zM4.272 6.563c0.005 0 0.010 0.005 0.010 0.010s-0.005 0.010-0.010 0.010c-0.005 0-0.010-0.005-0.010-0.010s0.005-0.010 0.010-0.010zM4.306 6.57c-0.002-0.002-0.002-0.005 0-0.007s0.005-0.002 0.007 0c0.007 0.007 0.017 0.010 0.026 0.010s0.019-0.002 0.026-0.010c0.007-0.007 0.010-0.017 0.010-0.026s-0.002-0.019-0.010-0.026c-0.007-0.007-0.017-0.010-0.026-0.010s-0.019 0.002-0.026 0.010c-0.002 0.002-0.005 0.002-0.007 0v-0.005l0.007-0.055c0-0.002 0-0.002 0.002-0.002h0.065c0.002 0 0.005 0.002 0.005 0.005s-0.002 0.005-0.005 0.005h-0.057l-0.005 0.041c0.007-0.005 0.014-0.007 0.024-0.007 0.012 0 0.024 0.005 0.031 0.014 0.010 0.010 0.014 0.019 0.014 0.031s-0.005 0.024-0.014 0.031c-0.010 0.010-0.022 0.014-0.031 0.014-0.017 0-0.029-0.002-0.036-0.012zM4.421 6.515c0-0.019 0.005-0.033 0.012-0.048 0.007-0.011 0.019-0.019 0.033-0.019 0 0 0 0 0 0h-0c0.014 0 0.026 0.007 0.034 0.019s0.012 0.029 0.012 0.048c0 0.019-0.005 0.033-0.012 0.048-0.007 0.011-0.019 0.019-0.033 0.019-0 0-0 0-0 0h0c-0 0-0 0-0 0-0.014 0-0.026-0.008-0.033-0.019l-0-0c-0.007-0.012-0.012-0.029-0.012-0.048zM4.43 6.515c0 0.017 0.005 0.031 0.012 0.041s0.017 0.017 0.026 0.017c0.010 0 0.019-0.005 0.026-0.017 0.007-0.010 0.012-0.024 0.012-0.041s-0.005-0.031-0.012-0.041c-0.007-0.010-0.017-0.017-0.026-0.017s-0.019 0.005-0.026 0.017c-0.007 0.010-0.012 0.026-0.012 0.041z"></path>
<path fill="#ffd8d0" style="fill: var(--color9, #ffd8d0)" d="M5.715 5.256h-0.413c-0.177 0-0.32 0.143-0.32 0.32v0 0.409c0 0.177 0.143 0.32 0.32 0.32v0h0.413c0.177 0 0.32-0.143 0.32-0.32v0-0.409c0-0.177-0.143-0.32-0.32-0.32v0z"></path>
<path fill="#fff" style="fill: var(--color4, #fff)" d="M5.758 5.919v0.279h-0.5v-0.279c0-0.098 0.022-0.353 0.249-0.353 0.23 0 0.251 0.255 0.251 0.353z"></path>
<path fill="#fff" style="fill: var(--color4, #fff)" d="M5.772 6.236h-0.529c-0.014-0-0.026-0.012-0.026-0.026v-0c0-0.014 0.012-0.026 0.026-0.026h0.529c0.014 0 0.026 0.012 0.026 0.026s-0.012 0.026-0.026 0.026h-0zM5.588 5.509h-0.158v0.119h0.158v-0.119z"></path>
<path fill="#455a64" style="fill: var(--color10, #455a64)" d="M5.605 5.452h-0.194v0.079h0.194v-0.079z"></path>
<path fill="#455a64" style="fill: var(--color10, #455a64)" d="M5.545 5.375h-0.072v0.091h0.072v-0.091z"></path>
<path fill="#455a64" style="fill: var(--color10, #455a64)" d="M5.435 5.342c-0.019 0.014-0.026 0.043 0.002 0.060 0.024 0.014 0.151-0.017 0.165-0.017 0.014 0.002 0.045 0.017 0.050 0.017s0.019-0.007 0.017-0.014c0-0.007-0.043-0.038-0.077-0.045s-0.132-0.019-0.158 0z"></path>
<path fill="#a6a6a6" style="fill: var(--color2, #a6a6a6)" d="M5.303 6.436c0.002 0 0.005 0.002 0.005 0.005v0.007c0.014 0 0.024 0.005 0.033 0.014 0.002 0.002 0.002 0.002 0.002 0.005s-0.002 0.005-0.005 0.005c0 0-0.002 0-0.002-0.002-0.010-0.007-0.019-0.012-0.029-0.012v0.052c0.029 0.007 0.041 0.017 0.041 0.036s-0.017 0.033-0.041 0.036v0.014c0 0.002-0.002 0.005-0.005 0.005s-0.005-0.002-0.005-0.005v-0.014c-0.017-0.002-0.031-0.007-0.043-0.019-0.002 0-0.002-0.002-0.002-0.005s0.002-0.005 0.005-0.005c0.002 0 0.002 0 0.002 0.002 0.010 0.010 0.022 0.017 0.038 0.017v-0.055c-0.029-0.007-0.041-0.017-0.041-0.036s0.017-0.033 0.041-0.033v-0.007c0-0.002 0.002-0.005 0.005-0.005zM5.299 6.51v-0.052c-0.019 0-0.031 0.012-0.031 0.026 0.002 0.012 0.007 0.019 0.031 0.026zM5.308 6.522v0.052c0.019 0 0.031-0.012 0.031-0.026s-0.007-0.021-0.031-0.026zM5.454 6.458l-0.033 0.036c0.010 0.002 0.017 0.005 0.024 0.012 0.010 0.010 0.014 0.021 0.014 0.031 0 0.012-0.005 0.024-0.014 0.031-0.010 0.010-0.022 0.014-0.031 0.014-0.012 0-0.024-0.005-0.031-0.014-0.002-0.002-0.002-0.005 0-0.007s0.005-0.002 0.007 0c0.007 0.007 0.017 0.010 0.026 0.010s0.019-0.002 0.026-0.010c0.007-0.007 0.010-0.017 0.010-0.026s-0.002-0.019-0.010-0.026c-0.007-0.007-0.017-0.010-0.026-0.010-0.002 0-0.002 0-0.005-0.002s-0.002-0.005 0-0.007l0.033-0.033h-0.050c-0.002 0-0.005-0.002-0.005-0.005s0.002-0.005 0.005-0.005h0.062c0.002 0 0.005 0.002 0.005 0.005l-0.007 0.007c0.002 0 0 0 0 0zM5.504 6.563c0.005 0 0.010 0.005 0.010 0.010s-0.005 0.010-0.010 0.010-0.010-0.005-0.010-0.010c0-0.005 0.005-0.010 0.010-0.010zM5.538 6.57c-0.002-0.002-0.002-0.005 0-0.007s0.005-0.002 0.007 0c0.007 0.007 0.017 0.010 0.026 0.010s0.019-0.002 0.026-0.010c0.007-0.007 0.010-0.017 0.010-0.026s-0.002-0.019-0.010-0.026c-0.007-0.007-0.017-0.010-0.026-0.010s-0.019 0.002-0.026 0.010c-0.002 0.002-0.005 0.002-0.007 0v-0.005l0.007-0.055c0-0.002 0-0.002 0.002-0.002h0.065c0.002 0 0.005 0.002 0.005 0.005s-0.002 0.005-0.005 0.005h-0.057l-0.005 0.041c0.007-0.005 0.014-0.007 0.024-0.007 0.012 0 0.024 0.005 0.031 0.014 0.010 0.010 0.014 0.019 0.014 0.031s-0.005 0.024-0.014 0.031c-0.010 0.010-0.022 0.014-0.031 0.014-0.017 0-0.026-0.002-0.036-0.012zM5.653 6.515c0-0.019 0.005-0.033 0.012-0.048 0.007-0.011 0.019-0.019 0.033-0.019 0 0 0 0 0 0h-0c0.014 0 0.026 0.007 0.033 0.019s0.012 0.029 0.012 0.048c0 0.019-0.005 0.033-0.012 0.048-0.007 0.011-0.019 0.019-0.033 0.019-0 0-0 0-0 0h0c-0 0-0 0-0 0-0.014 0-0.026-0.008-0.033-0.019l-0-0c-0.007-0.012-0.012-0.029-0.012-0.048zM5.662 6.515c0 0.017 0.005 0.031 0.012 0.041s0.017 0.017 0.026 0.017 0.019-0.005 0.026-0.017c0.007-0.010 0.012-0.024 0.012-0.041s-0.005-0.031-0.012-0.041c-0.007-0.010-0.017-0.017-0.026-0.017s-0.019 0.005-0.026 0.017c-0.007 0.010-0.012 0.026-0.012 0.041z"></path>
<path fill="#263238" style="fill: var(--color7, #263238)" d="M5.109 7.53h-1.677c-0.17 0-0.309 0.138-0.309 0.309s0.138 0.309 0.309 0.309h1.677c0.17 0 0.309-0.138 0.309-0.309 0-0 0-0 0-0v0c0-0.17-0.138-0.309-0.309-0.309v0z"></path>
<path fill="#fff" style="fill: var(--color4, #fff)" d="M3.478 7.881h-0.067l-0.014 0.036c-0.002 0.007-0.007 0.010-0.014 0.010h-0.005c-0.007-0.002-0.012-0.012-0.010-0.019l0.060-0.16c0.002-0.007 0.010-0.010 0.014-0.010 0.007 0 0.012 0.002 0.014 0.010l0.060 0.16c0.002 0.007 0 0.017-0.010 0.019h-0.005c-0.007 0-0.012-0.002-0.014-0.010l-0.010-0.036zM3.466 7.852l-0.022-0.057-0.022 0.057h0.043zM3.557 7.912v-0.16c0-0.010 0.007-0.014 0.014-0.014h0.031c0.053 0 0.095 0.043 0.096 0.095v0c-0 0.053-0.043 0.095-0.096 0.095h-0.031c-0.010-0.002-0.014-0.010-0.014-0.017zM3.586 7.895h0.017c0.036 0 0.065-0.029 0.065-0.064s-0.029-0.064-0.065-0.064h-0.017v0.129zM3.744 7.912v-0.16c0-0.010 0.007-0.014 0.014-0.014h0.031c0.053 0 0.095 0.043 0.096 0.095v0c-0 0.053-0.043 0.095-0.096 0.095h-0.031c-0.007-0.002-0.014-0.010-0.014-0.017zM3.775 7.895h0.017c0.036 0 0.065-0.029 0.065-0.064s-0.029-0.064-0.065-0.064h-0.017v0.129zM4.138 7.766h-0.043v0.145c0 0.010-0.007 0.014-0.014 0.014s-0.014-0.007-0.014-0.014v-0.145h-0.043c-0.010 0-0.014-0.007-0.014-0.014 0-0.010 0.007-0.014 0.014-0.014h0.117c0.007 0 0.014 0.007 0.014 0.014-0.002 0.007-0.010 0.014-0.017 0.014zM4.334 7.759c0.016 0.018 0.026 0.042 0.026 0.069 0 0 0 0 0 0v-0c0 0.026-0.010 0.050-0.026 0.069-0.017 0.017-0.041 0.029-0.065 0.029-0.026 0-0.050-0.012-0.067-0.029s-0.026-0.043-0.026-0.069c0-0.026 0.010-0.050 0.026-0.069s0.041-0.029 0.067-0.029c0.024 0 0.048 0.012 0.065 0.029zM4.33 7.828c0-0.019-0.007-0.036-0.019-0.048s-0.026-0.019-0.043-0.019c-0.017 0-0.033 0.007-0.043 0.019-0.012 0.012-0.019 0.028-0.019 0.047 0 0 0 0.001 0 0.001v-0c0 0.019 0.007 0.036 0.019 0.048s0.026 0.019 0.043 0.019c0.017 0 0.031-0.007 0.043-0.019s0.019-0.029 0.019-0.048zM4.488 7.828c0-0.055 0.045-0.098 0.1-0.098 0.024 0 0.045 0.007 0.062 0.021 0.007 0.005 0.007 0.014 0.002 0.021s-0.014 0.007-0.022 0.002c-0.011-0.009-0.026-0.014-0.041-0.014-0.001 0-0.001 0-0.002 0h0c-0.019 0-0.036 0.007-0.048 0.019s-0.019 0.028-0.019 0.047c0 0 0 0.001 0 0.001v-0c0 0.019 0.007 0.036 0.019 0.048s0.031 0.019 0.048 0.019c0 0 0.001 0 0.002 0 0.016 0 0.030-0.005 0.041-0.014l-0 0c0.007-0.005 0.017-0.002 0.022 0.002 0.005 0.007 0.005 0.017-0.002 0.021-0.017 0.014-0.038 0.021-0.062 0.021-0.055 0-0.1-0.043-0.1-0.098zM4.799 7.881h-0.067l-0.014 0.036c-0.002 0.007-0.007 0.010-0.014 0.010h-0.005c-0.006-0.002-0.010-0.008-0.010-0.015 0-0.001 0-0.003 0.001-0.004l-0 0 0.060-0.16c0.002-0.007 0.010-0.010 0.014-0.010 0.007 0 0.012 0.002 0.014 0.010l0.060 0.16c0.002 0.007 0 0.017-0.010 0.019h-0.005c-0.007 0-0.012-0.002-0.014-0.010l-0.010-0.036zM4.789 7.852l-0.022-0.057-0.022 0.057h0.043zM5.004 7.902c0.002 0.007-0.002 0.017-0.010 0.019h-0.007c-0.002 0-0.007 0-0.010-0.002s-0.007-0.005-0.010-0.010c-0.005-0.007-0.005-0.017-0.005-0.033 0-0.005-0.002-0.010-0.002-0.012l-0.007-0.007c-0.004-0.004-0.009-0.006-0.014-0.007l-0-0h-0.036v0.060c-0.001 0.008-0.007 0.014-0.014 0.014h-0c-0.010 0-0.014-0.007-0.014-0.014v-0.16c0-0.010 0.007-0.014 0.014-0.014h0.048c0.033 0 0.057 0.026 0.057 0.057 0 0.019-0.007 0.033-0.022 0.045l0.010 0.010c0.005 0.007 0.010 0.019 0.010 0.029v0.017c0.007 0.002 0.010 0.007 0.012 0.010zM4.966 7.795c0-0 0-0.001 0-0.001 0-0.015-0.012-0.028-0.028-0.028-0 0-0.001 0-0.001 0h-0.033v0.055h0.034c0.017 0 0.029-0.012 0.029-0.026zM5.16 7.766h-0.043v0.145c0 0.010-0.007 0.014-0.014 0.014s-0.014-0.007-0.014-0.014v-0.145h-0.043c-0.010 0-0.014-0.007-0.014-0.014 0-0.010 0.007-0.014 0.014-0.014h0.117c0.007 0 0.014 0.007 0.014 0.014-0.002 0.007-0.010 0.014-0.017 0.014z"></path>
<path fill="#f7a9a0" style="fill: var(--color14, #f7a9a0)" d="M6.913 9.611c0.053 0.017 1.536-0.002 1.591-0.038 0.022-0.014 0.031-0.229 0.036-0.491v-0.007c0-0.055 0.002-0.11 0.002-0.164v-0.024c0.002-0.377-0.005-0.768-0.005-0.768l-0.993 0.010 0.029 0.76v0.031l0.007 0.157v0.017s-0.565 0.26-0.622 0.308c-0.055 0.043-0.098 0.193-0.045 0.21z"></path>
<path fill="#ebebeb" style="fill: var(--color13, #ebebeb)" d="M6.913 9.611c0.053 0.017 1.536-0.002 1.591-0.038 0.022-0.014 0.031-0.229 0.036-0.491v-0.007c0-0.055 0.002-0.11 0.002-0.164v-0.024l-0.966 0.002v0.031l0.007 0.157v0.017s-0.565 0.26-0.622 0.308c-0.057 0.043-0.1 0.193-0.048 0.21z"></path>
<path fill="#ffc727" style="fill: var(--color3, #ffc727)" d="M6.913 9.611c0.031 0.010 0.608 0.007 1.057-0.005 0.28-0.007 0.514-0.019 0.536-0.033s0.031-0.224 0.036-0.479v-0.021l-0.957 0.002v0.017s-0.565 0.26-0.622 0.308c-0.060 0.045-0.103 0.195-0.050 0.212z"></path>
<path fill="#263238" style="fill: var(--color7, #263238)" d="M6.928 9.554c0.251-0.010 1.258-0.024 1.507-0.014 0.002 0 0.002 0.002 0 0.002-0.249 0.014-1.256 0.021-1.507 0.017-0.005-0.002-0.005-0.005 0-0.005zM7.475 9.080c0.098-0.019 0.218-0.007 0.294 0.062 0.002 0.002 0 0.007-0.005 0.005-0.098-0.029-0.189-0.048-0.289-0.057-0.007 0.002-0.007-0.010 0-0.010zM7.406 9.123c0.098-0.019 0.218-0.007 0.294 0.062 0.002 0.002 0 0.007-0.005 0.005-0.098-0.029-0.189-0.048-0.289-0.057-0.007 0.002-0.007-0.007 0-0.010zM7.334 9.166c0.098-0.019 0.218-0.007 0.294 0.062 0.002 0.002 0 0.007-0.005 0.005-0.098-0.029-0.189-0.048-0.289-0.057-0.005 0.002-0.007-0.007 0-0.010z"></path>
<path fill="#263238" style="fill: var(--color7, #263238)" d="M7.392 9.006c0.069 0.052 0.16 0.074 0.244 0.103 0.010 0.002 0.014-0.005 0.014-0.012 0.002 0 0.002-0.002 0.002-0.002-0.029-0.081-0.086-0.167-0.155-0.222-0.041-0.033-0.115-0.057-0.151-0.002-0.036 0.048 0.005 0.105 0.045 0.136zM7.365 8.927c-0.019-0.107 0.098-0.052 0.127-0.026 0.019 0.017 0.036 0.036 0.053 0.055 0.033 0.041 0.062 0.086 0.093 0.129-0.038-0.017-0.079-0.031-0.12-0.045-0.048-0.017-0.144-0.052-0.153-0.112z"></path>
<path fill="#263238" style="fill: var(--color7, #263238)" d="M7.978 8.939c-0.024-0.062-0.1-0.055-0.148-0.031-0.079 0.038-0.155 0.107-0.201 0.181 0 0.002 0 0.002 0.002 0.005-0.002 0.007 0.002 0.017 0.012 0.017 0.086-0.010 0.179-0.010 0.261-0.045 0.045-0.021 0.098-0.069 0.074-0.126zM7.77 9.068c-0.043 0.005-0.084 0.010-0.127 0.017 0.038-0.036 0.077-0.072 0.12-0.103 0.022-0.014 0.043-0.031 0.065-0.043 0.036-0.019 0.16-0.045 0.117 0.055-0.024 0.055-0.124 0.067-0.175 0.074zM7.052 9.356c0.060-0.002 0.117 0.024 0.151 0.060 0.031 0.033 0.060 0.081 0.057 0.134 0 0.002-0.002 0.002-0.002 0-0.017-0.098-0.105-0.181-0.206-0.188-0.002-0.002-0.002-0.005 0-0.005zM8.372 9.313c0.112-0.002 0.115 0.174 0.002 0.174-0.115 0-0.117-0.174-0.002-0.174z"></path>
<path fill="#263238" style="fill: var(--color7, #263238)" d="M7.968 9.604c0.28-0.007 0.514-0.019 0.536-0.033s0.031-0.224 0.036-0.479c-0.115 0.103-0.402 0.358-0.572 0.513z"></path>
<path fill="#455a64" style="fill: var(--color10, #455a64)" d="M8.841 3.859s-0.222 2.498-0.258 2.689c-0.010 0.043-0.014 0.279-0.017 0.584-0.007 0.663-0.002 1.857-0.002 1.857h-1.045s0.031-2.069 0.077-2.451c0.045-0.381 0.342-2.679 0.342-2.679h0.904z"></path>
<path fill="#263238" style="fill: var(--color7, #263238)" d="M7.564 8.806c0.163-0.002 0.117-0.005 0.28-0.007 0.079 0 0.605-0.005 0.679 0.007 0.002 0 0.002 0.002 0 0.002-0.074 0.012-0.6 0.007-0.679 0.007-0.163-0.002-0.117-0.002-0.28-0.007-0.002 0.002-0.002-0.002 0-0.002zM8.365 7.623c0-0.15 0.002-0.303 0.002-0.453 0-0.145 0-0.293 0.007-0.439 0.014-0.296 0.074-0.586 0.117-0.88s0.079-0.586 0.11-0.882c0.036-0.331 0.069-0.66 0.103-0.992 0-0.002 0.005-0.002 0.002 0-0.050 0.589-0.105 1.18-0.187 1.766-0.022 0.145-0.043 0.291-0.067 0.436-0.024 0.148-0.048 0.293-0.060 0.443-0.012 0.145-0.014 0.291-0.014 0.439-0.002 0.15-0.002 0.303-0.005 0.453-0.002 0.336-0.007 0.851-0.010 1.187 0 0.007-0.010 0.007-0.010 0 0.005-0.3 0.007-0.779 0.010-1.080z"></path>
<path fill="#263238" style="fill: var(--color7, #263238)" d="M9.064 3.859s-0.443 2.498-0.478 2.689c-0.010 0.043-0.014 0.279-0.017 0.584l-0.498-3.273h0.993z"></path>
<path fill="#f7a9a0" style="fill: var(--color14, #f7a9a0)" d="M8.126 9.7c0.053 0.012 1.531-0.11 1.586-0.15 0.022-0.014 0.014-0.231 0-0.491v-0.007c-0.002-0.055-0.007-0.11-0.010-0.164 0-0.007 0-0.014-0.002-0.024-0.024-0.377-0.057-0.765-0.057-0.765l-0.99 0.081 0.084 0.756 0.002 0.031 0.017 0.157 0.002 0.017s-0.545 0.3-0.598 0.35c-0.053 0.045-0.086 0.195-0.033 0.21z"></path>
<path fill="#ebebeb" style="fill: var(--color13, #ebebeb)" d="M8.126 9.7c0.053 0.012 1.531-0.11 1.586-0.15 0.022-0.014 0.014-0.231 0-0.491v-0.007c-0.002-0.055-0.007-0.11-0.010-0.164 0-0.007 0-0.014-0.002-0.024l-0.964 0.072 0.002 0.031 0.017 0.157 0.002 0.017s-0.545 0.3-0.598 0.35c-0.053 0.045-0.086 0.195-0.033 0.21z"></path>
<path fill="#ffc727" style="fill: var(--color3, #ffc727)" d="M8.126 9.7c0.053 0.012 1.531-0.11 1.586-0.15 0.022-0.014 0.014-0.231 0-0.491v-0.007l-0.954 0.069 0.002 0.017s-0.545 0.3-0.598 0.35c-0.055 0.048-0.089 0.198-0.036 0.212z"></path>
<path fill="#263238" style="fill: var(--color7, #263238)" d="M8.138 9.64c0.249-0.026 1.253-0.112 1.502-0.119 0.002 0 0.002 0.002 0 0.002-0.246 0.031-1.253 0.11-1.502 0.122-0.005 0-0.005-0.005 0-0.005zM8.652 9.13c0.096-0.026 0.218-0.021 0.299 0.043 0.002 0.002 0 0.007-0.005 0.007-0.1-0.021-0.191-0.033-0.294-0.036-0.007-0.002-0.007-0.014 0-0.014z"></path>
<path fill="#263238" style="fill: var(--color7, #263238)" d="M8.583 9.178c0.096-0.026 0.218-0.021 0.299 0.043 0.002 0.002 0 0.007-0.005 0.007-0.1-0.021-0.191-0.033-0.294-0.036-0.005-0.002-0.005-0.012 0-0.014z"></path>
<path fill="#263238" style="fill: var(--color7, #263238)" d="M8.516 9.225c0.096-0.026 0.218-0.021 0.299 0.043 0.002 0.002 0 0.007-0.005 0.007-0.1-0.021-0.191-0.033-0.294-0.036-0.005-0.002-0.007-0.012 0-0.014zM8.561 9.063c0.074 0.048 0.165 0.062 0.249 0.086 0.010 0.002 0.014-0.007 0.014-0.014 0.002 0 0.002-0.002 0.002-0.005-0.033-0.079-0.098-0.162-0.17-0.212-0.043-0.031-0.117-0.048-0.151 0.007s0.012 0.11 0.055 0.138zM8.53 8.985c-0.026-0.105 0.093-0.060 0.124-0.036 0.019 0.014 0.038 0.033 0.057 0.052 0.038 0.038 0.069 0.081 0.103 0.122-0.041-0.014-0.081-0.024-0.122-0.036-0.050-0.014-0.148-0.043-0.163-0.102z"></path>
<path fill="#263238" style="fill: var(--color7, #263238)" d="M9.143 8.954c-0.029-0.060-0.103-0.048-0.151-0.021-0.074 0.043-0.148 0.119-0.189 0.195 0 0.002 0 0.002 0.002 0.005 0 0.007 0.005 0.017 0.012 0.014 0.086-0.017 0.179-0.021 0.256-0.062 0.045-0.024 0.096-0.074 0.069-0.131zM8.942 9.097c-0.041 0.010-0.084 0.014-0.124 0.026 0.036-0.038 0.072-0.076 0.112-0.112 0.019-0.017 0.041-0.033 0.062-0.045 0.033-0.021 0.158-0.057 0.122 0.045-0.022 0.057-0.122 0.076-0.172 0.086zM8.224 9.442c0.060-0.010 0.12 0.014 0.156 0.045 0.033 0.031 0.065 0.076 0.069 0.126 0 0.002-0.002 0.002-0.002 0-0.024-0.095-0.122-0.172-0.22-0.169-0.002 0.002-0.002-0.002-0.002-0.002zM9.535 9.285c0.112-0.012 0.129 0.162 0.017 0.174s-0.129-0.162-0.017-0.174z"></path>
<path fill="#455a64" style="fill: var(--color10, #455a64)" d="M8.714 9.044l1.045-0.045s-0.285-2.284-0.289-2.424c-0.014-0.365-0.256-2.718-0.256-2.718h-1.275s0.081 0.544 0.218 0.887c0 0 0.105 0.033 0.268 0.122 0 0 0.12 1.557 0.124 1.75 0.005 0.386 0.165 2.429 0.165 2.429z"></path>
<path fill="#263238" style="fill: var(--color7, #263238)" d="M8.743 8.853c0.163-0.010 0.115-0.010 0.28-0.019 0.079-0.005 0.603-0.031 0.679-0.021 0.002 0 0.002 0.002 0 0.002-0.074 0.014-0.598 0.033-0.679 0.036-0.163 0.005-0.117 0.002-0.28 0.005-0.005 0.002-0.005-0.002 0-0.002zM9.119 3.998c0.048 0.594 0.096 1.185 0.151 1.776 0.055 0.594 0.12 1.187 0.196 1.778 0.043 0.331 0.091 0.796 0.144 1.125 0 0.002-0.002 0.002-0.002 0-0.105-0.584-0.182-1.311-0.249-1.902s-0.12-1.182-0.167-1.774c-0.026-0.334-0.053-0.67-0.077-1.006-0.002-0.002 0.005-0.002 0.005 0.002zM8.109 4.722c0.108 0.038 0.213 0.091 0.313 0.145 0.005 0.002 0.002 0.007-0.002 0.007-0.105-0.045-0.213-0.088-0.316-0.138-0.010-0.005-0.005-0.017 0.005-0.014zM8.076 4.002c0-0.005 0.007-0.005 0.007 0 0 0.124 0.007 0.234 0.017 0.35 0.005 0.055 0.048 0.353 0.144 0.331 0.017-0.005 0.024-0.019 0.026-0.043 0.002-0.029-0.007-0.064-0.012-0.091-0.010-0.062-0.019-0.126-0.024-0.188-0.010-0.117-0.010-0.236 0.005-0.353 0-0.005 0.007-0.002 0.007 0 0 0.162 0.005 0.327 0.029 0.489 0.012 0.079 0.050 0.195-0.031 0.207-0.084 0.012-0.136-0.184-0.146-0.238-0.033-0.153-0.033-0.315-0.022-0.465z"></path>
<path fill="#263238" style="fill: var(--color7, #263238)" d="M8.238 4.691c0.010 0.019 0.014 0.041 0.022 0.062 0.005 0.017 0.010 0.033 0.010 0.050 0 0.002-0.005 0.005-0.007 0.002-0.012-0.014-0.017-0.033-0.022-0.050l-0.022-0.057c-0.005-0.012 0.014-0.019 0.019-0.007z"></path>
<path fill="#c7c7c7" style="fill: var(--color8, #c7c7c7)" d="M4.009 9.101l-0.005-0.048 2.524-0.129-0.187-1.12 0.048-0.007 0.196 1.173-2.576 0.131z"></path>
<path fill="#37474f" style="fill: var(--color12, #37474f)" d="M4.313 9.418c0.062-0.048 0.101-0.123 0.101-0.206 0-0.061-0.021-0.118-0.056-0.162l0 0.001c-0.090-0.114-0.255-0.134-0.369-0.045-0.062 0.048-0.101 0.123-0.101 0.206 0 0.061 0.021 0.118 0.056 0.162l-0-0.001c0.090 0.114 0.255 0.134 0.369 0.045z"></path>
<path fill="#ebebeb" style="fill: var(--color13, #ebebeb)" d="M4.031 9.211c0 0.067 0.053 0.119 0.12 0.119 0 0 0.001 0 0.001 0 0.065 0 0.118-0.053 0.118-0.118 0-0 0-0.001 0-0.001v0c0-0 0-0.001 0-0.001 0-0.065-0.053-0.118-0.118-0.118-0 0-0.001 0-0.001 0h0c-0.065-0.002-0.12 0.052-0.12 0.119z"></path>
<path fill="#37474f" style="fill: var(--color12, #37474f)" d="M6.235 9.466c0.141-0.033 0.229-0.175 0.195-0.316s-0.175-0.228-0.317-0.195-0.229 0.175-0.195 0.316c0.034 0.141 0.175 0.228 0.317 0.195z"></path>
<path fill="#ebebeb" style="fill: var(--color13, #ebebeb)" d="M6.052 9.211c0 0.067 0.053 0.119 0.12 0.119 0 0 0.001 0 0.001 0 0.065 0 0.118-0.053 0.118-0.118 0-0 0-0.001 0-0.001v0c0-0 0-0.001 0-0.001 0-0.065-0.053-0.118-0.118-0.118-0 0-0.001 0-0.001 0h0c-0.065-0.002-0.12 0.052-0.12 0.119z"></path>
<path fill="#c7c7c7" style="fill: var(--color8, #c7c7c7)" d="M4.459 9.392l-0.002-0.048 2.524-0.129-0.246-1.471 0.048-0.007 0.254 1.521-2.576 0.133z"></path>
<path fill="#37474f" style="fill: var(--color12, #37474f)" d="M4.77 9.701c0.058-0.048 0.095-0.121 0.095-0.202 0-0.064-0.023-0.122-0.061-0.168l0 0c-0.049-0.058-0.121-0.095-0.203-0.095-0.064 0-0.123 0.023-0.168 0.061l0-0c-0.058 0.048-0.095 0.121-0.095 0.202 0 0.064 0.023 0.122 0.061 0.168l-0-0c0.049 0.058 0.121 0.095 0.203 0.095 0.064 0 0.123-0.023 0.168-0.061l-0 0z"></path>
<path fill="#ebebeb" style="fill: var(--color13, #ebebeb)" d="M4.483 9.499c0 0 0 0.001 0 0.001 0 0.065 0.053 0.118 0.118 0.118 0 0 0.001 0 0.001-0h-0c0.067 0 0.12-0.052 0.12-0.119s-0.053-0.119-0.12-0.119c-0.066 0-0.119 0.053-0.12 0.119v0z"></path>
<path fill="#37474f" style="fill: var(--color12, #37474f)" d="M6.866 9.602c0.056-0.134-0.007-0.287-0.141-0.343s-0.288 0.007-0.344 0.141c-0.056 0.134 0.007 0.287 0.141 0.343s0.288-0.007 0.344-0.141z"></path>
<path fill="#ebebeb" style="fill: var(--color13, #ebebeb)" d="M6.504 9.499c0 0.067 0.053 0.119 0.12 0.119 0 0 0.001 0 0.001 0 0.065 0 0.118-0.053 0.118-0.118 0-0 0-0.001 0-0.001v0c0-0 0-0.001 0-0.001 0-0.065-0.053-0.118-0.118-0.118-0 0-0.001 0-0.001 0h0c-0.065 0-0.12 0.055-0.12 0.119z"></path>
<path fill="#a6a6a6" style="fill: var(--color2, #a6a6a6)" d="M3.918 7.654l-0.368-1.673 2.512-0.405 0.026 1.75-0.022 0.002-2.148 0.327zM3.607 6.019l0.349 1.583 2.084-0.317-0.024-1.652-2.409 0.386z"></path>
<path fill="#a6a6a6" style="fill: var(--color2, #a6a6a6)" d="M4.191 5.901l-0.047 0.007 0.259 1.649 0.047-0.007-0.259-1.649zM4.864 5.795l-0.048 0.005 0.184 1.666 0.048-0.005-0.184-1.666zM5.521 5.7l-0.048 0.002 0.073 1.679 0.048-0.002-0.073-1.679z"></path>
<path fill="#a6a6a6" style="fill: var(--color2, #a6a6a6)" d="M6.060 6.106l-2.363 0.426 0.009 0.047 2.363-0.426-0.009-0.047zM6.059 6.74l-2.243 0.332 0.007 0.047 2.243-0.332-0.007-0.047z"></path>
<path fill="#dbdbdb" style="fill: var(--color11, #dbdbdb)" d="M7.109 7.733l-1.069-0.412v-1.747l1.634 0.472-0.565 1.688zM6.086 7.287l0.993 0.381 0.531-1.592-1.526-0.441v1.652h0.002z"></path>
<path fill="#dbdbdb" style="fill: var(--color11, #dbdbdb)" d="M6.071 6.107l-0.017 0.045 1.381 0.527 0.017-0.045-1.381-0.527zM6.070 6.742l-0.018 0.044 1.183 0.481 0.018-0.044-1.183-0.481z"></path>
<path fill="#dbdbdb" style="fill: var(--color11, #dbdbdb)" d="M6.583 5.757l-0.223 1.668 0.047 0.006 0.223-1.668-0.047-0.006zM7.113 5.909l-0.375 1.658 0.047 0.010 0.375-1.658-0.047-0.010zM6.447 4.246l-0.407 1.354 0.046 0.014 0.407-1.354-0.046-0.014zM8.062 4.567l-0.446 1.484 0.046 0.014 0.446-1.484-0.046-0.014z"></path>
<path fill="#263238" style="fill: var(--color7, #263238)" d="M6.372 4.179l-0.019 0.093 1.832 0.376 0.019-0.093-1.832-0.376z"></path>
<path fill="#ffc727" style="fill: var(--color3, #ffc727)" d="M5.306 6.157l0.452 0.207 0.744-0.148-0.445-0.126-0.751 0.067z"></path>
<path fill="#000" style="fill: var(--color15, #000)" opacity="0.1" d="M5.306 6.157l0.452 0.207 0.744-0.148-0.445-0.126-0.751 0.067z"></path>
<path fill="#e6a36e" style="fill: var(--color16, #e6a36e)" d="M6.090 6.222c0.005 0.191 0.050 1.104-0.127 1.12-0.062 0.007-0.12-0.136-0.163-0.348-0.005-0.021-0.010-0.043-0.012-0.064-0.014-0.079-0.026-0.167-0.038-0.257l-0.007-0.064c-0.008-0.068-0.016-0.158-0.021-0.249l-0-0.011c0-0.021-0.002-0.043-0.002-0.064 0-0.019-0.002-0.036-0.002-0.055-0.002-0.060-0.002-0.119-0.002-0.176v-0.064c0.002-0.119 0.007-0.231 0.014-0.336 0.002-0.021 0.002-0.041 0.005-0.060 0.026-0.267 0.077-0.46 0.146-0.479 0.148-0.038 0.196 0.634 0.211 1.108z"></path>
<path fill="#cc8a58" style="fill: var(--color17, #cc8a58)" d="M5.973 6.882c-0.002 0.002-0.005 0.002-0.007 0.005l-0.002 0.002c-0.065 0.022-0.12 0.060-0.162 0.109l-0 0c-0.005-0.021-0.010-0.043-0.012-0.064 0.055-0.045 0.122-0.072 0.179-0.062h0.005c0.002 0 0.005 0.005 0 0.010zM5.952 6.608c-0.002 0-0.005 0.002-0.007 0.002l-0.002 0.002c-0.065 0.002-0.129 0.021-0.184 0.060-0.002 0.002-0.005 0.002-0.007 0.005l-0.007-0.064c0.067-0.036 0.146-0.043 0.206-0.017l0.002 0.002h0.002s0.002 0.007-0.002 0.010zM5.937 6.329h-0.012c-0.065-0.012-0.129-0.010-0.191 0.017l-0.014 0.007c0-0.021-0.002-0.043-0.002-0.064 0.074-0.024 0.16-0.014 0.218 0.026 0 0 0.002 0 0.002 0.002 0 0 0.002 0 0.002 0.002 0.002 0.002 0.005 0.010-0.002 0.010zM5.928 6.036h-0.012c-0.065-0.012-0.129-0.010-0.191 0.017-0.005 0.002-0.007 0.002-0.010 0.005v-0.064c0.072-0.021 0.155-0.012 0.21 0.029 0 0 0.002 0 0.002 0.002 0 0 0.002 0 0.002 0.002 0.002 0.002 0.002 0.010-0.002 0.010zM5.928 5.69c-0.002 0-0.005 0-0.007-0.002h-0.005c-0.060-0.026-0.124-0.038-0.187-0.031 0.002-0.021 0.002-0.041 0.005-0.060 0.072 0 0.148 0.029 0.194 0.079v0.002l0.002 0.002c0.002 0.005 0.002 0.012-0.002 0.010z"></path>
<path fill="#edaa76" style="fill: var(--color18, #edaa76)" d="M6.37 6.336c-0.026 0.188-0.136 1.089-0.313 1.066-0.062-0.007-0.096-0.16-0.103-0.377 0-0.021-0.002-0.043-0.002-0.064 0-0.081 0-0.169 0.005-0.26 0-0.021 0.002-0.043 0.005-0.064 0.005-0.083 0.014-0.172 0.024-0.257 0.002-0.021 0.005-0.043 0.007-0.062 0.002-0.017 0.005-0.036 0.007-0.052 0.007-0.057 0.017-0.117 0.026-0.174 0.005-0.021 0.007-0.043 0.012-0.062 0.022-0.114 0.045-0.224 0.072-0.324l0.014-0.057c0.069-0.255 0.153-0.431 0.225-0.434 0.155-0.010 0.089 0.658 0.022 1.123z"></path>
<path fill="#cc8a58" style="fill: var(--color17, #cc8a58)" d="M6.148 6.954c-0.002 0.002-0.005 0.002-0.007 0.002l-0.002 0.002c-0.065 0.007-0.124 0.029-0.179 0.069 0-0.021-0.002-0.043-0.002-0.064 0.062-0.031 0.132-0.041 0.189-0.019 0 0 0.002 0 0.002 0.002h0.002c0-0.002 0.002 0.005-0.002 0.007zM6.172 6.679h-0.012c-0.065-0.012-0.129-0.010-0.191 0.014-0.002 0-0.005 0.002-0.007 0.002 0-0.021 0.002-0.043 0.005-0.064 0.072-0.019 0.151-0.007 0.206 0.031l0.002 0.002s0.002 0 0.002 0.002c0 0.005 0 0.012-0.005 0.012zM6.205 6.405c-0.002 0-0.005 0-0.007-0.002h-0.005c-0.062-0.026-0.127-0.038-0.191-0.029-0.005 0-0.010 0.002-0.014 0.002 0.002-0.021 0.005-0.043 0.007-0.062 0.077-0.005 0.16 0.024 0.21 0.079v0.002l0.002 0.002c0.002 0 0.002 0.007-0.002 0.007zM6.243 6.117c-0.002 0-0.005 0-0.007-0.002h-0.005c-0.062-0.026-0.127-0.038-0.191-0.029-0.005 0-0.007 0.002-0.012 0.002 0.005-0.021 0.007-0.043 0.012-0.062 0.074-0.005 0.155 0.026 0.203 0.079v0.002l0.002 0.002c0.002 0.002 0.002 0.007-0.002 0.007zM6.301 5.781c-0.002 0-0.005-0.002-0.007-0.005-0.002 0-0.002 0-0.005-0.002-0.055-0.041-0.115-0.067-0.179-0.074l0.014-0.057c0.072 0.017 0.141 0.062 0.177 0.122v0.002s0 0.002 0.002 0.002c0.005 0.007 0.005 0.012-0.002 0.012z"></path>
<path fill="#ffc727" style="fill: var(--color3, #ffc727)" d="M5.306 6.157s0.029 0.911 0.019 0.946c-0.010 0.036-0.065 0.462-0.060 0.474s0.435 0.257 0.45 0.243c0.014-0.014 0.041-0.629 0.041-0.706s0.005-0.753 0.005-0.753l-0.455-0.205z"></path>
<path fill="#ffc727" style="fill: var(--color3, #ffc727)" d="M5.758 6.365l-0.045 1.456s0.698-0.205 0.703-0.217c0.007-0.012 0.041-0.424 0.031-0.489s0.053-0.899 0.053-0.899l-0.742 0.148z"></path>
<path fill="#000" style="fill: var(--color15, #000)" opacity="0.1" d="M5.758 6.365l-0.045 1.456s0.698-0.205 0.703-0.217c0.007-0.012 0.041-0.424 0.031-0.489s0.053-0.899 0.053-0.899l-0.742 0.148z"></path>
<path fill="#dbdbdb" style="fill: var(--color11, #dbdbdb)" d="M4.789 8.019l-0.871-0.362-0.002-0.012-0.368-1.671 1.081 0.441 0.16 1.604zM3.959 7.621l0.773 0.322-0.148-1.497-0.971-0.396 0.347 1.571z"></path>
<path fill="#dbdbdb" style="fill: var(--color11, #dbdbdb)" d="M3.911 6.125l-0.047 0.008 0.282 1.599 0.047-0.008-0.282-1.599zM4.267 6.276l-0.047 0.007 0.225 1.576 0.047-0.007-0.225-1.576z"></path>
<path fill="#dbdbdb" style="fill: var(--color11, #dbdbdb)" d="M3.849 7.207l-0.016 0.045 0.876 0.305 0.016-0.045-0.876-0.305zM3.709 6.543l-0.018 0.044 0.956 0.378 0.018-0.044-0.956-0.378z"></path>
<path fill="#ebebeb" style="fill: var(--color13, #ebebeb)" d="M4.787 8.017l-0.208-1.607 3.093-0.367-0.565 1.69-0.014 0.002-2.306 0.281zM4.634 6.451l0.196 1.514 2.244-0.274 0.531-1.59-2.971 0.35z"></path>
<path fill="#ebebeb" style="fill: var(--color13, #ebebeb)" d="M5.319 6.346l-0.048 0.004 0.136 1.553 0.048-0.004-0.136-1.553zM6.098 6.248l-0.092 1.58 0.048 0.003 0.092-1.58-0.048-0.003zM6.888 6.153l-0.305 1.607 0.047 0.009 0.305-1.607-0.047-0.009z"></path>
<path fill="#ebebeb" style="fill: var(--color13, #ebebeb)" d="M7.452 6.598l-2.798 0.314 0.005 0.047 2.798-0.314-0.005-0.047zM7.246 7.223l-2.531 0.264 0.005 0.047 2.531-0.264-0.005-0.047z"></path>
<path fill="#f7a9a0" style="fill: var(--color14, #f7a9a0)" d="M8.255 2.584c-0.129 0.2-0.603 0.93-0.899 0.93-0.179 0-0.785-0.303-0.916-0.405-0.155-0.119 0.263-0.496 0.371-0.451 0.134 0.055 0.495 0.267 0.581 0.267 0.077 0 0.294-0.243 0.706-0.51 0.211-0.141 0.27-0.005 0.158 0.169z"></path>
<path fill="#f7a9a0" style="fill: var(--color14, #f7a9a0)" d="M6.454 3.118c-0.055-0.026-0.301-0.172-0.361-0.226s-0.218-0.229-0.182-0.279 0.089-0.002 0.089-0.002-0.055-0.083-0.012-0.131c0.043-0.048 0.12 0.029 0.12 0.029s-0.050-0.091-0.005-0.134c0.045-0.043 0.11 0.045 0.11 0.045s-0.050-0.081 0.002-0.1c0.065-0.024 0.141 0.133 0.211 0.191 0.017 0.012 0.342 0.236 0.342 0.236l-0.313 0.372z"></path>
<path fill="#263238" style="fill: var(--color7, #263238)" d="M6.208 2.415c0.057 0.117 0.1 0.157 0.211 0.224 0.002 0.002 0 0.005-0.002 0.002-0.112-0.057-0.175-0.1-0.213-0.224-0.002-0.007 0.002-0.010 0.005-0.002zM6.102 2.501c0.069 0.114 0.117 0.16 0.225 0.238 0.002 0 0 0.005-0.002 0.002-0.112-0.069-0.175-0.112-0.23-0.238 0-0.005 0.005-0.007 0.007-0.002zM6.007 2.615c0.074 0.107 0.127 0.157 0.242 0.222 0.002 0.002 0 0.005-0.002 0.005-0.124-0.052-0.187-0.117-0.242-0.224-0.005-0.007-0.002-0.010 0.002-0.002z"></path>
<path fill="#ffc727" style="fill: var(--color3, #ffc727)" d="M5.973 2.641c0.081 0.267 0.335 0.234 0.407 0.212s0.299-0.133 0.218-0.403c-0.081-0.267-0.352-0.205-0.399-0.191-0.055 0.017-0.309 0.114-0.225 0.381z"></path>
<path fill="#455a64" style="fill: var(--color10, #455a64)" d="M6.219 2.296s0.012 0.1 0.189 0.041c0 0-0.12-0.126-0.189-0.041z"></path>
<path fill="#455a64" style="fill: var(--color10, #455a64)" d="M6.236 2.338s0.084 0.005 0.060-0.145c0 0-0.12 0.076-0.060 0.145z"></path>
<path fill="#455a64" style="fill: var(--color10, #455a64)" d="M6.231 2.31s-0.029 0.079-0.158-0.005c0 0 0.12-0.076 0.158 0.005z"></path>
<path fill="#455a64" style="fill: var(--color10, #455a64)" d="M6.224 2.291s-0.077 0.064 0.072 0.179c0 0 0.038-0.169-0.072-0.179z"></path>
<path fill="#455a64" style="fill: var(--color10, #455a64)" d="M6.217 2.305s-0.112-0.031-0.098 0.16c0 0 0.172-0.060 0.098-0.16z"></path>
<path fill="#455a64" style="fill: var(--color10, #455a64)" d="M6.236 2.329s0.014-0.1-0.069-0.169c0 0-0.048 0-0.060 0.050 0 0 0.096 0.052 0.103 0.141l0.022-0.014z"></path>
<path fill="#f7a9a0" style="fill: var(--color14, #f7a9a0)" d="M6.887 2.737s-0.045-0.155-0.081-0.219c-0.036-0.064-0.254-0.253-0.297-0.207-0.057 0.057 0.048 0.191 0.108 0.25 0 0-0.132 0.133-0.077 0.246 0.053 0.114 0.347-0.069 0.347-0.069z"></path>
<path fill="#263238" style="fill: var(--color7, #263238)" d="M6.497 2.331c-0.014 0.091 0.069 0.162 0.124 0.224 0.005 0.005 0.002 0.010-0.002 0.012-0.050 0.060-0.105 0.157-0.084 0.238 0 0.002-0.002 0.002-0.002 0.002-0.033-0.083 0.012-0.184 0.072-0.246-0.057-0.064-0.139-0.141-0.108-0.231z"></path>
<path fill="#ffc727" style="fill: var(--color3, #ffc727)" d="M7.583 2.722l0.399 0.355s0.227-0.272 0.321-0.534c0.093-0.262-0.132-0.229-0.289-0.124-0.16 0.105-0.431 0.303-0.431 0.303z"></path>
<path fill="#263238" style="fill: var(--color7, #263238)" d="M8.028 2.992c-0.175-0.138-0.306-0.284-0.337-0.312-0.002-0.002 0-0.002 0.002-0.002 0.029 0.029 0.206 0.179 0.337 0.312l-0.002 0.002z"></path>
<path fill="#263238" style="fill: var(--color7, #263238)" d="M8.303 2.544c-0.093 0.26-0.321 0.534-0.321 0.534l-0.184-0.164c0.122-0.169 0.318-0.439 0.416-0.57 0.089-0.005 0.146 0.045 0.089 0.2z"></path>
<path fill="#ffc727" style="fill: var(--color3, #ffc727)" d="M7.798 4.195c0.024 0.024 1.495 0.010 1.502 0 0.019-0.026-0.206-0.973-0.376-1.33-0.218-0.46-0.333-0.498-0.399-0.524-0.089-0.033-0.316-0.019-0.354-0.002-0.043 0.019-0.151 0.234-0.201 0.405-0.1 0.343-0.194 1.43-0.172 1.452z"></path>
<path fill="#f7a9a0" style="fill: var(--color14, #f7a9a0)" d="M8.746 2.768c-0.007 0.451-0.026 0.984-0.153 1.135-0.189 0.229-0.665 0.462-0.859 0.505-0.081 0.019-0.309-0.591-0.22-0.61 0.184-0.038 0.608-0.212 0.646-0.25 0.036-0.036 0.184-0.474 0.301-0.813 0.141-0.408 0.289-0.226 0.285 0.033z"></path>
<path fill="#f7a9a0" style="fill: var(--color14, #f7a9a0)" d="M7.614 3.774s-0.244 0.062-0.402 0.11c-0.089 0.026-0.234 0.086-0.289 0.136-0.084 0.074-0.385 0.434-0.299 0.508 0.079 0.067 0.297-0.274 0.297-0.274s-0.251 0.327-0.144 0.391c0.11 0.064 0.304-0.355 0.304-0.355s-0.251 0.341-0.129 0.389c0.093 0.036 0.292-0.334 0.292-0.334s-0.213 0.296-0.12 0.336c0.103 0.045 0.309-0.284 0.309-0.284 0.256 0.067 0.407-0.007 0.505-0.072 0.026-0.017-0.323-0.551-0.323-0.551z"></path>
<path fill="#263238" style="fill: var(--color7, #263238)" d="M6.999 4.136c-0.031 0.038-0.062 0.074-0.091 0.114s-0.053 0.081-0.077 0.124c-0.057 0.103-0.079 0.176-0.077 0.174 0.041-0.105 0.136-0.248 0.165-0.288 0.029-0.043 0.053-0.083 0.079-0.124 0.002 0 0-0.002 0 0zM7.145 4.231c-0.053 0.043-0.165 0.198-0.208 0.303-0.002 0.005 0 0.005 0.002 0 0.036-0.050 0.172-0.253 0.206-0.303 0.002 0 0.002 0 0 0zM7.286 4.293c-0.062 0.060-0.112 0.143-0.153 0.238-0.002 0.005 0.002 0.005 0.005 0 0.050-0.081 0.089-0.143 0.153-0.236 0-0.002-0.002-0.005-0.005-0.002z"></path>
<path fill="#ffc727" style="fill: var(--color3, #ffc727)" d="M8.255 3.159l0.529 0.079s0.041-0.353-0.024-0.622c-0.065-0.269-0.234-0.119-0.311 0.055-0.077 0.176-0.194 0.489-0.194 0.489z"></path>
<path fill="#263238" style="fill: var(--color7, #263238)" d="M8.769 3.135c-0.222-0.014-0.414-0.062-0.455-0.067-0.002 0-0.002-0.002 0-0.002 0.041 0.007 0.27 0.031 0.455 0.067 0.002 0 0 0.002 0 0.002z"></path>
<path fill="#263238" style="fill: var(--color7, #263238)" d="M8.332 2.977c0.024-0.060 0.060-0.145 0.079-0.205 0 0 0-0.002-0.002 0-0.014 0.031-0.029 0.064-0.043 0.098 0-0.002 0-0.005 0.002-0.005 0.002-0.019 0.007-0.036 0.007-0.055-0.005 0.019-0.010 0.036-0.014 0.055l-0.007 0.036c-0.007 0.017-0.026 0.060-0.031 0.076-0.012 0.029-0.077 0.188-0.074 0.188 0.005 0 0.055 0.007 0.065 0.007 0.002 0 0.002-0.005 0-0.005-0.010 0-0.050-0.007-0.055-0.007 0.012-0.031 0.024-0.060 0.038-0.091l0.036-0.093zM8.817 2.889c-0.004 0.013-0.007 0.029-0.009 0.046l-0 0.002c0 0.005-0.002 0.012-0.002 0.017-0.002-0.046-0.006-0.088-0.010-0.128l0.001 0.009h-0.002c0.005 0.067 0.002 0.133 0 0.198 0 0.033-0.002 0.064-0.005 0.098 0 0.017-0.002 0.033-0.002 0.050 0 0.019-0.002 0.055-0.002 0.055-0.010-0.002-0.041-0.005-0.050-0.007-0.002 0-0.002 0.002 0 0.002 0.010 0.002 0.057 0.010 0.057 0.010 0-0.017 0.005-0.038 0.007-0.055s0.002-0.031 0.005-0.048c0.002-0.033 0.005-0.069 0.005-0.103v-0.057c0.002-0.014 0.007-0.029 0.010-0.043 0.002-0.017 0.005-0.033 0.007-0.048-0.002 0-0.007 0-0.007 0.002z"></path>
<path fill="#f7a9a0" style="fill: var(--color14, #f7a9a0)" d="M8.214 2.574c0.081 0.024 0.232-0.093 0.294-0.193 0.005-0.007-0.002-0.081-0.005-0.172-0.001-0.026-0.002-0.056-0.002-0.087s0.001-0.061 0.002-0.091l-0 0.004c0-0.012-0.359 0.064-0.359 0.064s0.029 0.119 0.022 0.217c0 0.007-0.002 0.017-0.005 0.024v0.005c-0.010 0.043-0.026 0.205 0.053 0.229z"></path>
<path fill="#263238" style="fill: var(--color7, #263238)" d="M8.482 2.036c-0.022 0.093-0.096 0.319-0.285 0.312-0.014 0-0.026-0.002-0.036-0.005v-0.005c0.002-0.007 0.002-0.014 0.005-0.024 0.007-0.098-0.022-0.217-0.022-0.217s0.258-0.052 0.337-0.062z"></path>
<path fill="#f7a9a0" style="fill: var(--color14, #f7a9a0)" d="M8.523 1.585c0.048 0.122 0.010 0.489-0.072 0.575-0.12 0.126-0.33 0.155-0.443 0.007-0.108-0.143-0.050-0.617 0.043-0.698 0.139-0.119 0.402-0.064 0.471 0.117z"></path>
<path fill="#263238" style="fill: var(--color7, #263238)" d="M8.195 1.833c0-0.002 0.002 0 0 0-0.002 0.026 0 0.055 0.022 0.067v0.002c-0.029-0.010-0.029-0.048-0.022-0.069z"></path>
<path fill="#263238" style="fill: var(--color7, #263238)" d="M8.219 1.809c0.041 0 0.036 0.081-0.002 0.081-0.036-0.002-0.031-0.081 0.002-0.081zM8.057 1.826c0-0.002-0.002 0 0 0-0.002 0.026-0.007 0.055-0.031 0.062v0.002c0.029-0.005 0.033-0.041 0.031-0.064z"></path>
<path fill="#263238" style="fill: var(--color7, #263238)" d="M8.035 1.797c-0.041-0.005-0.048 0.074-0.010 0.079 0.036 0.007 0.043-0.074 0.010-0.079zM8.253 1.774c-0.010-0.002-0.019-0.007-0.031-0.012s-0.022-0.007-0.029-0.019c-0.005-0.005-0.002-0.017 0.005-0.021 0.012-0.010 0.029-0.007 0.043-0.002s0.026 0.014 0.033 0.029c0.010 0.017-0.007 0.031-0.022 0.026zM8.006 1.757c0.012 0 0.022-0.005 0.033-0.007s0.022-0.002 0.031-0.012c0.005-0.005 0.005-0.014 0-0.021-0.010-0.012-0.026-0.012-0.041-0.010-0.016 0.002-0.029 0.010-0.038 0.021l-0 0c-0.012 0.012 0 0.029 0.014 0.029zM8.224 2.064c-0.007 0.005-0.012 0.012-0.022 0.014-0.010 0-0.019-0.005-0.026-0.007 0 0-0.002 0 0 0.002 0.005 0.010 0.019 0.017 0.031 0.014 0.010-0.002 0.014-0.012 0.017-0.024 0.002 0 0 0 0 0zM8.203 1.99c-0.014 0.021-0.036 0.031-0.057 0.033-0.010 0.002-0.022 0-0.031 0h-0.010c-0.002 0-0.005-0.002-0.005-0.005v-0.005c0-0.019 0.005-0.048 0.005-0.048-0.007 0.002-0.043 0.017-0.043 0.007 0.010-0.081 0.022-0.174 0.048-0.253 0-0.002 0.005-0.002 0.005 0-0.007 0.079-0.026 0.157-0.034 0.236 0.012-0.005 0.031-0.010 0.041-0.010 0.002 0-0.007 0.055-0.007 0.064 0.029 0.002 0.053-0.005 0.088-0.021-0.002-0.005 0-0.002 0 0z"></path>
<path fill="#263238" style="fill: var(--color7, #263238)" d="M8.124 2.014s0.017 0.024 0.038 0.033c0.007 0.002 0.017 0.005 0.026 0.002 0.019-0.005 0.022-0.021 0.019-0.038-0.002-0.012-0.007-0.024-0.007-0.024s-0.029 0.026-0.077 0.026z"></path>
<path fill="#ff6596" style="fill: var(--color19, #ff6596)" d="M8.162 2.048c0.007 0.002 0.017 0.005 0.026 0.002 0.019-0.005 0.022-0.021 0.019-0.038-0.019 0.002-0.041 0.014-0.045 0.036z"></path>
<path fill="#263238" style="fill: var(--color7, #263238)" d="M8.006 1.611c0.122 0.083 0.287-0.043 0.287-0.043 0.038 0.095 0.134 0.083 0.134 0.083s0.024 0.205 0.079 0.205c0.084 0 0.108-0.281 0.081-0.336s-0.096-0.069-0.096-0.069-0.005-0.043-0.055-0.081c-0.057-0.043-0.251 0.014-0.251 0.014s-0.014-0.036-0.050-0.067c-0.024-0.019-0.055-0.017-0.074 0.007 0.010 0.014 0.017 0.031 0.019 0.050 0.010 0.060-0.041 0.060-0.038 0.005 0-0.024 0.007-0.043 0.019-0.057-0.024-0.036-0.065-0.048-0.089-0.029-0.041 0.038-0.067 0.248 0.034 0.317z"></path>
<path fill="#f7a9a0" style="fill: var(--color14, #f7a9a0)" d="M8.47 1.886s0.074-0.122 0.129-0.095c0.055 0.026 0.002 0.198-0.057 0.226-0.062 0.026-0.086-0.029-0.086-0.029l0.014-0.103z"></path>
<path fill="#263238" style="fill: var(--color7, #263238)" d="M8.583 1.838c0.002 0 0.002 0.002 0 0-0.043 0.021-0.062 0.064-0.077 0.107 0.012-0.017 0.029-0.026 0.053-0.012v0.002c-0.019-0.002-0.031 0-0.043 0.017-0.007 0.010-0.012 0.024-0.019 0.036-0.002 0.005-0.010 0.002-0.007-0.002-0.005-0.057 0.033-0.138 0.093-0.148z"></path>
<path fill="#ffc727" style="fill: var(--color3, #ffc727)" d="M1.297 7.523c0.010-0.231 0.005-0.462-0.010-0.691-0.031-0.474-0.11-0.946-0.218-1.411-0.060-0.26-0.136-0.517-0.213-0.775-0.002-0.007-0.014-0.005-0.012 0.002 0.242 0.903 0.438 1.836 0.426 2.775-0.005 0.262-0.033 0.522-0.060 0.782 0 0.007 0.012 0.010 0.012 0.002 0.048-0.222 0.065-0.455 0.074-0.684z"></path>
<path fill="#ffc727" style="fill: var(--color3, #ffc727)" d="M0.844 4.648s-0.364 0.923-0.282 1.139c0.081 0.217 0.251 0.262 0.251 0.262s-0.222 0.317-0.067 0.615c0.156 0.298 0.502 0.284 0.526 0.622-0.005 0 0.014-1.411-0.428-2.639z"></path>
<path fill="#263238" style="fill: var(--color7, #263238)" d="M1.23 6.706v-0.005c-0.050-0.627-0.163-1.251-0.354-1.855 0-0.002-0.002-0.002-0.002 0 0.052 0.173 0.118 0.447 0.176 0.723l0.016 0.090c-0.048-0.048-0.11-0.076-0.175-0.098-0.002 0-0.002 0.002 0 0.002 0.067 0.029 0.132 0.062 0.179 0.119 0.010 0.052 0.022 0.107 0.031 0.16-0.081-0.091-0.194-0.136-0.309-0.179-0.002 0-0.002 0.002 0 0.002 0.117 0.048 0.234 0.11 0.316 0.21 0.029 0.153 0.053 0.308 0.074 0.46-0.060-0.062-0.134-0.105-0.218-0.124-0.002 0-0.005 0.002-0.002 0.005 0.086 0.024 0.16 0.074 0.22 0.141h0.002c0.007 0.055 0.014 0.11 0.022 0.162-0.045-0.038-0.096-0.069-0.153-0.091-0.002 0-0.002 0.002 0 0.002 0.057 0.024 0.108 0.060 0.153 0.1h0.002c0.007 0.052 0.012 0.102 0.017 0.155-0.084-0.1-0.187-0.174-0.309-0.219-0.002 0-0.005 0.002-0.002 0.005 0.12 0.052 0.225 0.133 0.304 0.234 0.002 0.002 0.005 0.002 0.007 0.002 0.007 0.079 0.014 0.16 0.022 0.238 0 0 0.002 0.002 0.002 0-0.007-0.079-0.012-0.16-0.019-0.241z"></path>
<path fill="#263238" style="fill: var(--color7, #263238)" d="M0.935 5.471c-0.062-0.043-0.144-0.062-0.22-0.069-0.002 0-0.002 0.002 0 0.002 0.079 0.012 0.144 0.041 0.218 0.072 0.002 0.002 0.005-0.002 0.002-0.005zM0.981 6.448c-0.050-0.031-0.108-0.048-0.165-0.057-0.002 0-0.002 0.002 0 0.002 0.057 0.010 0.11 0.031 0.163 0.057 0.002 0.002 0.005-0.002 0.002-0.002z"></path>
<path fill="#ffc727" style="fill: var(--color3, #ffc727)" d="M2.256 5.805c-0.153 0.107-0.299 0.229-0.421 0.367-0.132 0.148-0.23 0.315-0.297 0.501-0.139 0.381-0.213 0.791-0.22 1.197-0 0.018-0.001 0.040-0.001 0.062 0 0.216 0.024 0.427 0.069 0.63l-0.004-0.019c0.002 0.007 0.014 0.005 0.012-0.002-0.027-0.17-0.043-0.366-0.043-0.565 0-0.215 0.018-0.427 0.053-0.632l-0.003 0.022c0.062-0.381 0.16-0.796 0.404-1.106 0.132-0.169 0.297-0.303 0.462-0.439 0.007-0.010-0.005-0.021-0.012-0.014z"></path>
<path fill="#ffc727" style="fill: var(--color3, #ffc727)" d="M1.371 7.595s0.124-0.21 0.309-0.391c0.182-0.181 0.337-0.31 0.359-0.431 0.024-0.119-0.182-0.21-0.182-0.21s0.254 0.045 0.321-0.060c0.069-0.105 0.103-0.718 0.103-0.718s-0.459 0.327-0.672 0.784c-0.215 0.458-0.237 1.025-0.237 1.025z"></path>
<path fill="#263238" style="fill: var(--color7, #263238)" d="M2.119 5.94c-0.194 0.188-0.388 0.391-0.502 0.639-0.032 0.069-0.066 0.157-0.095 0.247l-0.005 0.018c-0.005 0.019-0.012 0.036-0.017 0.055v0.002c-0.057 0.186-0.096 0.377-0.132 0.565 0 0.002 0.002 0.002 0.002 0 0.025-0.127 0.048-0.224 0.074-0.32l-0.007 0.032h0.002c0.038-0.017 0.079-0.026 0.12-0.031 0.002 0 0.002-0.005 0-0.005-0.044 0.003-0.084 0.010-0.123 0.022l0.004-0.001c0.022-0.086 0.045-0.174 0.074-0.257 0.081-0.020 0.175-0.033 0.271-0.036l0.002-0v-0.002c-0.091-0.005-0.179 0.005-0.268 0.024l0.014-0.043c0.060-0.014 0.12-0.024 0.182-0.031v-0.002c-0.060 0.002-0.12 0.007-0.177 0.021 0.024-0.074 0.053-0.145 0.081-0.217 0.024-0.060 0.055-0.114 0.086-0.167 0.050-0.012 0.096-0.021 0.146-0.026 0.002 0 0.002-0.002 0-0.002-0.045-0.002-0.093 0-0.136 0.014 0.032-0.050 0.057-0.088 0.083-0.124l-0.007 0.010c0.103-0.024 0.208-0.043 0.313-0.024 0.002 0 0.002-0.002 0-0.002-0.1-0.026-0.201-0.012-0.299 0.010 0.012-0.014 0.022-0.029 0.033-0.043 0.062-0.019 0.127-0.029 0.191-0.031 0.002 0 0.002-0.002 0-0.002-0.060-0.005-0.122 0-0.179 0.017 0.086-0.105 0.179-0.205 0.273-0.303 0.005-0.007 0-0.010-0.005-0.005z"></path>
<path fill="#263238" style="fill: var(--color7, #263238)" d="M2.115 6.358c-0.031-0.002-0.060-0.007-0.091-0.002-0.005 0-0.002 0.007 0 0.007 0.031 0 0.060-0.002 0.091 0 0.002 0 0.002-0.005 0-0.005zM1.785 6.951c-0.048 0-0.096 0.012-0.141 0.029v0.002c0.048-0.012 0.093-0.017 0.141-0.024 0.005 0 0.005-0.007 0-0.007zM1.684 6.746c-0.019 0-0.041 0.002-0.060 0.005-0.002 0-0.002 0.002 0 0.002 0.019 0 0.041 0 0.060-0.002 0.005 0 0.005-0.005 0-0.005z"></path>
<path fill="#ffc727" style="fill: var(--color3, #ffc727)" d="M0.024 6.453c0.148 0.050 0.294 0.117 0.426 0.2 0.141 0.088 0.258 0.203 0.356 0.336 0.201 0.277 0.356 0.591 0.457 0.918 0.055 0.184 0.091 0.369 0.103 0.56 0 0.007-0.010 0.007-0.010 0-0.047-0.354-0.145-0.675-0.286-0.971l0.008 0.019c-0.139-0.293-0.316-0.608-0.584-0.803-0.146-0.107-0.311-0.176-0.476-0.248-0.010-0.002-0.005-0.014 0.005-0.012z"></path>
<path fill="#ffc727" style="fill: var(--color3, #ffc727)" d="M1.155 7.697s-0.151-0.141-0.34-0.246c-0.189-0.105-0.344-0.174-0.392-0.267s0.1-0.212 0.1-0.212-0.194 0.095-0.275 0.026c-0.079-0.069-0.249-0.555-0.249-0.555s0.447 0.16 0.727 0.479c0.28 0.322 0.428 0.775 0.428 0.775z"></path>
<path fill="#263238" style="fill: var(--color7, #263238)" d="M1.131 7.597c-0.225-0.42-0.521-0.799-0.931-1.046 0.112 0.073 0.21 0.15 0.3 0.235l-0.001-0.001c-0.084-0.002-0.167 0.012-0.242 0.050-0.002 0 0 0.002 0.002 0.002 0.081-0.029 0.16-0.045 0.246-0.041h0.002l0.043 0.043c-0.043 0.002-0.086 0.007-0.129 0.017v0.002c0.045-0.010 0.091-0.012 0.136-0.012 0.073 0.073 0.142 0.151 0.206 0.233l0.004 0.006c-0.009-0.002-0.020-0.002-0.030-0.002-0.022 0-0.042 0.003-0.062 0.010l0.001-0c-0.002 0-0.002 0.005 0 0.002 0.033-0.005 0.065-0.002 0.096-0.002 0.012 0.017 0.024 0.031 0.036 0.048-0.091-0.005-0.182 0.002-0.273 0.026-0.002 0 0 0.002 0 0.002 0.093-0.019 0.184-0.024 0.28-0.019 0.012 0.014 0.022 0.031 0.033 0.045-0.055-0.002-0.108 0.005-0.163 0.019-0.002 0-0.002 0.005 0 0.002 0.055-0.012 0.11-0.017 0.167-0.012 0.035 0.047 0.080 0.113 0.125 0.18l0.014 0.023c-0.024-0.005-0.048-0.002-0.072 0.005-0.002 0 0 0.002 0 0.002 0.026-0.002 0.050 0 0.077 0.005 0.031 0.045 0.069 0.106 0.105 0.168l0.010 0.018c0.012 0.002 0.019-0.002 0.017-0.007z"></path>
<path fill="#263238" style="fill: var(--color7, #263238)" d="M0.785 7.249c-0.043-0.005-0.088 0.002-0.129 0.017v0.002c0.037-0.006 0.081-0.012 0.126-0.014l0.003-0c0.002 0 0.002-0.005 0-0.005zM0.392 6.739c-0.019-0.002-0.041 0-0.060 0.002-0.002 0-0.002 0.005 0 0.002 0.019-0.002 0.038-0.002 0.060-0.002 0.005 0.002 0.005-0.002 0-0.002z"></path>
<path fill="#455a64" style="fill: var(--color10, #455a64)" d="M1.732 9.082h-1.009l0.144-1.051 0.036-0.269h0.651l0.036 0.269 0.144 1.051z"></path>
<path fill="#263238" style="fill: var(--color7, #263238)" d="M1.588 8.031h-0.722l0.036-0.269h0.651l0.036 0.269z"></path>
<path fill="#455a64" style="fill: var(--color10, #455a64)" d="M1.646 7.666h-0.835v0.229h0.835v-0.229z"></path>
</symbol>
</defs>
</svg>
